SplineFontDB: 3.0
FontName: Skeemat
FullName: skeemat
FamilyName: skeemat
Weight: Book
Copyright: (c)1998 http://www.grilledcheese.com,  TeA Curran
Version: Macromedia Fontographer 4.1.5 8/30/98
ItalicAngle: 0
UnderlinePosition: -123
UnderlineWidth: 20
Ascent: 800
Descent: 200
InvalidEm: 0
sfntRevision: 0x00010000
LayerCount: 2
Layer: 0 1 "Back" 1
Layer: 1 1 "Fore" 0
XUID: [1021 270 -1463357204 13476955]
FSType: 1
OS2Version: 0
OS2_WeightWidthSlopeOnly: 0
OS2_UseTypoMetrics: 1
CreationTime: 904502035
ModificationTime: 1424504081
PfmFamily: 81
TTFWeight: 400
TTFWidth: 5
LineGap: 0
VLineGap: 0
Panose: 0 0 4 0 0 0 0 0 0 0
OS2TypoAscent: 832
OS2TypoAOffset: 0
OS2TypoDescent: -422
OS2TypoDOffset: 0
OS2TypoLinegap: 0
OS2WinAscent: 832
OS2WinAOffset: 0
OS2WinDescent: 422
OS2WinDOffset: 0
HheadAscent: 832
HheadAOffset: 0
HheadDescent: -422
HheadDOffset: 0
OS2SubXSize: 700
OS2SubYSize: 650
OS2SubXOff: 0
OS2SubYOff: 143
OS2SupXSize: 700
OS2SupYSize: 650
OS2SupXOff: 0
OS2SupYOff: 453
OS2StrikeYSize: 50
OS2StrikeYPos: 259
OS2CapHeight: 0
OS2XHeight: 0
OS2Vendor: 'Alts'
OS2UnicodeRanges: 00000000.00000000.00000000.00000000
DEI: 91125
TtTable: prep
NPUSHB
 17
 11
 11
 10
 10
 9
 9
 8
 8
 3
 3
 2
 2
 1
 1
 0
 0
 1
SCANTYPE
PUSHW_1
 511
SCANCTRL
RCVT
ROUND[Grey]
WCVTP
RCVT
ROUND[Grey]
WCVTP
RCVT
ROUND[Grey]
WCVTP
RCVT
ROUND[Grey]
WCVTP
RCVT
ROUND[Grey]
WCVTP
RCVT
ROUND[Grey]
WCVTP
RCVT
ROUND[Grey]
WCVTP
RCVT
ROUND[Grey]
WCVTP
PUSHB_4
 5
 4
 70
 0
CALL
PUSHB_4
 7
 6
 70
 0
CALL
PUSHB_2
 4
 4
RCVT
ROUND[Grey]
WCVTP
PUSHB_2
 6
 6
RCVT
ROUND[Grey]
WCVTP
EndTTInstrs
TtTable: fpgm
NPUSHB
 1
 0
FDEF
SROUND
RCVT
DUP
PUSHB_1
 3
CINDEX
RCVT
SWAP
SUB
ROUND[Grey]
RTG
SWAP
ROUND[Grey]
ADD
WCVTP
ENDF
EndTTInstrs
ShortTable: cvt  50
  -326
  -21
  421
  778
  35
  119
  36
  265
  36
  59
  323
  107
  23206
  -3177
  15086
  1328
  7492
  -22060
  26683
  -23756
  -13107
  7510
  5105
  -18323
  9481
  -14663
  27740
  7675
  -13216
  32523
  21491
  -29785
  -22266
  4555
  9401
  -19108

StartChar: .notdef
Encoding: 65536 -1 0
Width: 500
Flags: W
LayerCount: 2
Back
Fore
SplineSet
63 0 m 1,0,-1
 63 832 l 1,1,-1
 438 832 l 1,2,-1
 438 0 l 1,3,-1
 63 0 l 1,0,-1
125 63 m 1,4,-1
 375 63 l 1,5,-1
 375 770 l 1,6,-1
 125 770 l 1,7,-1
 125 63 l 1,4,-1
EndSplineSet
Validated: 1
EndChar

StartChar: exclam
Encoding: 33 33 4
Width: 549
Flags: WO
LayerCount: 2
Back
Fore
SplineSet
479 635 m 1,1,2
 478 638 478 638 477 642 c 1,3,4
 479 639 479 639 479 635 c 1,1,2
476 643 m 1,5,6
 473 650 473 650 468 665 c 1,7,8
 475 651 475 651 476 643 c 1,5,6
453 663 m 1,9,-1
 454 663 l 1,10,-1
 454 661 l 1,11,-1
 453 663 l 1,9,-1
435 702 m 1,12,13
 436 704 436 704 448 709 c 1,14,-1
 435 702 l 1,12,13
466 18 m 0,15,16
 465 19 465 19 462 18 c 0,17,18
 460 19 460 19 459 20 c 1,19,20
 471 27 471 27 474.5 27 c 128,-1,21
 478 27 478 27 481 24 c 1,22,23
 476 23 476 23 466 18 c 0,15,16
407 692 m 1,24,-1
 403 693 l 1,25,26
 403 696 403 696 407 700 c 0,27,28
 409 699 409 699 411 697 c 0,29,30
 410 693 410 693 407 692 c 1,24,-1
417 26 m 1,31,32
 425 27 425 27 442 30 c 1,33,-1
 453 29 l 1,34,35
 445 26 445 26 417 26 c 1,31,32
370 724 m 2,36,-1
 367 723 l 1,37,38
 369 729 369 729 372 733 c 1,39,-1
 375 732 l 1,40,41
 376 725 376 725 370 724 c 2,36,-1
403 56 m 2,42,-1
 402 56 l 1,43,44
 401 60 401 60 404 60 c 1,45,46
 404 56 404 56 403 56 c 2,42,-1
385 75 m 1,47,48
 383 77 383 77 386 82 c 0,49,50
 390 84 390 84 390 83 c 0,51,52
 390 80 390 80 385 75 c 1,47,48
388 26 m 1,53,54
 385.5 28.5 385.5 28.5 391 34 c 1,55,-1
 388 26 l 1,53,54
307 714 m 1,56,-1
 308 721 l 1,57,58
 310 722 310 722 313 716 c 1,59,-1
 313 714 l 1,60,-1
 307 714 l 1,56,-1
412 741 m 1,61,-1
 403 735 l 257,62,63
 401 735 401 735 400 737 c 0,64,65
 402 739 402 739 402 744 c 0,66,67
 399 746 399 746 397.5 742.5 c 128,-1,68
 396 739 396 739 394 739 c 1,69,-1
 391 746 l 1,70,71
 388 745 388 745 386.5 749 c 128,-1,72
 385 753 385 753 384 753 c 0,73,74
 377 746 377 746 378 746 c 1,75,76
 377 746 377 746 376.5 750 c 128,-1,77
 376 754 376 754 372 753 c 1,78,79
 373 750 373 750 362 749 c 1,80,81
 362 751 362 751 361 754 c 0,82,83
 358 756 358 756 356 752 c 128,-1,84
 354 748 354 748 352.5 748 c 128,-1,85
 351 748 351 748 350 749 c 0,86,87
 347 757 347 757 344 757 c 1,88,-1
 343 750 l 1,89,90
 342 752 342 752 339 755 c 128,-1,91
 336 758 336 758 335 755.5 c 128,-1,92
 334 753 334 753 333 751 c 1,93,-1
 321 748 l 1,94,95
 321 751 321 751 320 754 c 1,96,-1
 318 754 l 1,97,98
 317 747 317 747 306.5 743.5 c 128,-1,99
 296 740 296 740 295 739 c 1,100,-1
 293 740 l 1,101,102
 288 735 288 735 286 735 c 2,103,-1
 279 738 l 1,104,-1
 279 732 l 1,105,-1
 276 732 l 1,106,107
 276 735 276 735 273.5 734 c 128,-1,108
 271 733 271 733 269.5 733 c 128,-1,109
 268 733 268 733 267 734 c 0,110,111
 257 730 257 730 213.5 720.5 c 128,-1,112
 170 711 170 711 153 691 c 0,113,114
 150 689 150 689 152 683 c 1,115,116
 156 684 156 684 176.5 693.5 c 128,-1,117
 197 703 197 703 207 710 c 0,118,119
 209 710 209 710 214 712.5 c 128,-1,120
 219 715 219 715 225 714 c 1,121,122
 218 710 218 710 210 706 c 2,123,-1
 187 695 l 2,124,125
 174 689 174 689 170 677 c 0,126,127
 171 675 171 675 173 675 c 1,128,-1
 173 679 l 1,129,130
 184 691 184 691 237 710 c 0,131,132
 241 712 241 712 248 712 c 1,133,134
 233 696 233 696 228 685 c 0,135,136
 223 668 223 668 199.307692308 630.307692308 c 128,-1,137
 175.615384615 592.615384615 175.615384615 592.615384615 175 592 c 2,138,-1
 168 599 l 1,139,140
 168 609 168 609 158 626 c 1,141,142
 150 627 150 627 144 608 c 1,143,144
 139.924528302 613.433962264 139.924528302 613.433962264 133.962264151 608.216981132 c 128,-1,145
 128 603 128 603 128 600 c 0,146,147
 121 596 121 596 123 585 c 0,148,149
 125 582 125 582 127.5 584 c 128,-1,150
 130 586 130 586 133.5 584.5 c 128,-1,151
 137 583 137 583 143 588 c 0,152,153
 147 589 147 589 149.5 585 c 128,-1,154
 152 581 152 581 154 581 c 256,155,156
 156 581 156 581 158 582 c 1,157,158
 160 571 160 571 161 573 c 1,159,160
 161 570 161 570 165 566 c 1,161,162
 184 572 184 572 185 571 c 0,163,164
 184 567 184 567 180 558 c 1,165,166
 174 560 174 560 161 560 c 0,167,168
 158 558 158 558 157 551 c 1,169,-1
 129 548 l 1,170,-1
 129 544 l 1,171,172
 133 541 133 541 142.5 542.5 c 128,-1,173
 152 544 152 544 155 541 c 0,174,175
 155 535 155 535 153 530 c 1,176,-1
 151 532 l 1,177,178
 138 532 138 532 115 535 c 0,179,180
 114 535 114 535 115 533 c 0,181,182
 119 533 119 533 144 524 c 1,183,184
 129 521 129 521 129 516 c 1,185,186
 133 514 133 514 146 518 c 0,187,188
 155 517 155 517 157 508 c 1,189,190
 153 500 153 500 153 487 c 1,191,-1
 158 483 l 1,192,193
 163 498 163 498 163 504 c 128,-1,194
 163 510 163 510 160 514.5 c 128,-1,195
 157 519 157 519 159 526 c 128,-1,196
 161 533 161 533 165 552 c 1,197,198
 175 548 175 548 183 548 c 128,-1,199
 191 548 191 548 198 551 c 0,200,201
 206 561 206 561 203 569 c 0,202,203
 194 578 194 578 194 579 c 0,204,205
 199 588 199 588 211 605 c 1,206,207
 221 546 221 546 270 519 c 0,208,209
 279 517 279 517 288 514.5 c 128,-1,210
 297 512 297 512 303.5 514 c 128,-1,211
 310 516 310 516 322 515 c 1,212,213
 322 483 322 483 317 420 c 1,214,215
 315 425 315 425 309.5 423 c 128,-1,216
 304 421 304 421 302 424 c 0,217,218
 295 428 295 428 277.531914894 431.829787234 c 128,-1,219
 260.063829787 435.659574468 260.063829787 435.659574468 161 479 c 1,220,-1
 158 476 l 1,221,222
 240 435 240 435 317 415 c 1,223,224
 317 388 317 388 315 368 c 128,-1,225
 313 348 313 348 306 273 c 1,226,227
 295 266 295 266 274 250 c 1,228,229
 248 222 248 222 238.5 187 c 128,-1,230
 229 152 229 152 220 89 c 1,231,-1
 210 89 l 1,232,233
 209 88 209 88 208 84 c 0,234,235
 212 80 212 80 212 71 c 2,236,-1
 212 57 l 1,237,238
 214 51 214 51 214 44 c 128,-1,239
 214 37 214 37 213 29 c 1,240,241
 198 29 198 29 182 23 c 0,242,243
 157 17 157 17 148 6 c 1,244,245
 151 -2 151 -2 170 -8 c 1,246,247
 222.514925373 -2.91791044776 222.514925373 -2.91791044776 242 11 c 1,248,249
 243 24 243 24 243 38 c 128,-1,250
 243 52 243 52 244.5 61.5 c 128,-1,251
 246 71 246 71 244 93 c 1,252,253
 239 91 239 91 228 92 c 1,254,-1
 235 149 l 2,255,256
 238 170 238 170 254 209 c 0,257,258
 255 215 255 215 279 247 c 1,259,-1
 290 254 l 2,260,261
 304 263 304 263 310 267 c 1,262,263
 330 255 330 255 344 229 c 0,264,265
 348 216 348 216 368.5 168 c 128,-1,266
 389 120 389 120 390 91 c 1,267,268
 385 91 385 91 377 87 c 1,269,270
 376 80 376 80 376 67.5 c 128,-1,271
 376 55 376 55 380 34 c 0,272,273
 379 30 379 30 379 23 c 256,274,275
 379 16 379 16 380 7 c 0,276,277
 382 4 382 4 385 5 c 0,278,279
 395 15 395 15 393 15 c 1,280,281
 396 15 396 15 400 7 c 1,282,283
 429 10 429 10 470 12 c 1,284,-1
 488 17 l 1,285,-1
 505 16 l 1,286,287
 506 18 506 18 504 20 c 128,-1,288
 502 22 502 22 485.5 29 c 128,-1,289
 469 36 469 36 447.5 36 c 128,-1,290
 426 36 426 36 409 34 c 1,291,292
 409 42 409 42 410.5 62 c 128,-1,293
 412 82 412 82 411 99 c 0,294,295
 408 100 408 100 397 94 c 1,296,297
 385.133105802 157.290102389 385.133105802 157.290102389 340 246 c 0,298,299
 328 264 328 264 314 276 c 1,300,-1
 318 329 l 2,301,302
 318 331 318 331 324 420 c 1,303,304
 335 421 335 421 345 429 c 1,305,306
 370 438 370 438 414 466 c 0,307,308
 422 474 422 474 448 498 c 128,-1,309
 474 522 474 522 502 562 c 1,310,311
 521.159663866 564.554621849 521.159663866 564.554621849 550 597 c 1,312,313
 542 595 542 595 528.5 584 c 128,-1,314
 515 573 515 573 507 571 c 1,315,316
 518 600 518 600 544 631 c 0,317,318
 544 634 544 634 542 637 c 0,319,320
 533 636 533 636 500 573 c 1,321,-1
 496 569 l 1,322,323
 494 583 494 583 501 599 c 128,-1,324
 508 615 508 615 514 630 c 0,325,326
 512 633 512 633 509 632 c 0,327,328
 504 626 504 626 486 566 c 1,329,330
 485 567 485 567 479 569.5 c 128,-1,331
 473 572 473 572 473 576 c 0,332,333
 465 584 465 584 463 583 c 0,334,335
 461.266666667 579.533333333 461.266666667 579.533333333 469 566 c 1,336,337
 477 558 477 558 482 558.5 c 128,-1,338
 487 559 487 559 490 556 c 1,339,340
 449 492 449 492 358 439 c 0,341,342
 347 434 347 434 324 428 c 1,343,-1
 325 432 l 1,344,345
 323.540540541 477.243243243 323.540540541 477.243243243 330.5 519 c 1,346,-1
 331 520 l 1,347,348
 339 523 339 523 347.5 525 c 128,-1,349
 356 527 356 527 385 541 c 0,350,351
 396 549 396 549 417 570 c 1,352,353
 445 613 445 613 445 651 c 0,354,355
 445 660 445 660 443 669 c 1,356,-1
 444 670 l 1,357,358
 448 662 448 662 462 620 c 1,359,-1
 464 621 l 1,360,361
 460 633 460 633 456 658 c 1,362,363
 463 643 463 643 464.5 633.5 c 128,-1,364
 466 624 466 624 470 613 c 1,365,-1
 472 615 l 1,366,-1
 472 619 l 1,367,368
 467 640 467 640 455.5 668.5 c 128,-1,369
 444 697 444 697 443 697 c 1,370,371
 444 696 444 696 455.5 676 c 128,-1,372
 467 656 467 656 480 615 c 1,373,374
 476 614 476 614 477 611 c 0,375,376
 478 610 478 610 480 610 c 256,377,378
 482 610 482 610 483 611 c 1,379,-1
 483 622 l 1,380,381
 487 612 487 612 487 608 c 128,-1,382
 487 604 487 604 486 602 c 1,383,384
 488 603 488 603 491 603 c 0,385,386
 493 611 493 611 489 622 c 2,387,-1
 482 641 l 2,388,389
 475 661 475 661 454 704 c 1,390,-1
 457 707 l 1,391,392
 458 710 458 710 455 715 c 0,393,394
 454 715 454 715 451 713 c 0,395,396
 450 714 450 714 449 716 c 0,397,398
 446 715 446 715 444.5 715 c 128,-1,399
 443 715 443 715 436 717.5 c 128,-1,400
 429 720 429 720 427 718 c 0,401,402
 422 720 422 720 419 726 c 1,403,404
 422 729 422 729 421 731 c 0,405,406
 419 732 419 732 414 729 c 1,407,408
 409 731 409 731 411 735 c 128,-1,409
 413 739 413 739 412 741 c 1,61,-1
234 679 m 1,410,411
 243 706 243 706 273 720 c 1,412,-1
 278 720 l 1,413,414
 255 703 255 703 234 679 c 1,410,411
221 643 m 1,415,416
 222 658 222 658 259 692 c 0,417,418
 262 696 262 696 273 702 c 1,419,420
 255 683 255 683 221 643 c 1,415,416
218 628 m 1,421,422
 217 634 217 634 227 642 c 1,423,-1
 218 628 l 1,421,422
189 598 m 1,424,-1
 180 582 l 1,425,426
 178.051724138 589.793103448 178.051724138 589.793103448 211 640 c 1,427,428
 211 629 211 629 189 598 c 1,424,-1
189 580 m 1,429,-1
 186 579 l 1,430,431
 187 582 187 582 194 597 c 1,432,-1
 209 619 l 1,433,-1
 209 614 l 1,434,435
 202 605 202 605 189 580 c 1,429,-1
165 694 m 1,436,437
 168 701 168 701 195 711 c 1,438,439
 185 703 185 703 165 694 c 1,436,437
191 559 m 2,440,-1
 185 558 l 1,441,442
 185 566 185 566 190 571 c 0,443,444
 195 571 195 571 197 567 c 0,445,446
 198 560 198 560 191 559 c 2,440,-1
238 82 m 1,447,-1
 236 82 l 1,448,-1
 236 85 l 1,449,450
 237 84 237 84 238 82 c 1,447,-1
234 24 m 1,451,-1
 235 26 l 1,452,-1
 235 24 l 1,453,-1
 234 24 l 1,451,-1
226 26 m 1,454,455
 227 31 227 31 231 35 c 1,456,457
 228 29 228 29 226 26 c 1,454,455
158 608 m 1,458,-1
 149 608 l 1,459,460
 150 617 150 617 155 620 c 1,461,462
 159 614 159 614 158 608 c 1,458,-1
165 390.5 m 128,-1,464
 159 385 159 385 134.842696629 391.764044944 c 128,-1,465
 110.685393258 398.528089888 110.685393258 398.528089888 105 390 c 0,466,467
 96 383 96 383 85 383 c 128,-1,468
 74 383 74 383 62 387 c 0,469,470
 54 391 54 391 57 397 c 0,471,472
 69 414 69 414 102 421 c 1,473,-1
 101 423 l 1,474,-1
 79 432 l 1,475,-1
 73 430 l 1,476,477
 70 431 70 431 68 438 c 0,478,479
 64 439 64 439 62 435 c 0,480,481
 61 429 61 429 62 426 c 1,482,-1
 66 424 l 1,483,484
 63 415 63 415 37 414 c 0,485,486
 29 414 29 414 17 422 c 1,487,488
 20 438 20 438 44 446 c 0,489,490
 46 447 46 447 67 444 c 1,491,-1
 68 444 l 1,492,493
 70 457 70 457 78 485 c 0,494,495
 79 486 79 486 80.5 486 c 128,-1,496
 82 486 82 486 84 483 c 0,497,498
 81 477 81 477 78 465 c 1,499,500
 91 465 91 465 91 459 c 0,501,502
 91 451 91 451 84.5 454.5 c 128,-1,503
 78 458 78 458 76 458 c 0,504,505
 73 448 73 448 75 441 c 1,506,507
 92 435 92 435 126 418 c 1,508,-1
 130 422 l 1,509,510
 128 423 128 423 120.5 425.5 c 128,-1,511
 113 428 113 428 91 437 c 0,512,513
 90 439 90 439 94 443 c 0,514,515
 93 447 93 447 93 452.5 c 128,-1,516
 93 458 93 458 97 466 c 1,517,518
 89 467 89 467 85 472 c 0,519,520
 85 476 85 476 86 477 c 0,521,522
 93 474 93 474 96.5 474 c 0,523,524
 104 474 104 474 102 482 c 1,525,-1
 93 489 l 1,526,527
 96 488 96 488 101.5 488 c 128,-1,528
 107 488 107 488 116 491 c 0,529,530
 117 490 117 490 119 489 c 0,531,532
 120 488 120 488 117 486.5 c 128,-1,533
 114 485 114 485 114 482 c 0,534,535
 118 478 118 478 130 469 c 1,536,537
 131 474 131 474 123 487 c 1,538,-1
 126 487 l 1,539,-1
 133 483 l 1,540,541
 134 484 134 484 137 484 c 0,542,543
 139 478 139 478 126 450 c 1,544,545
 130 450 130 450 139 447 c 1,546,547
 141 452 141 452 143 474 c 0,548,549
 147 476 147 476 148 474 c 0,550,551
 148 445 148 445 130 411 c 0,552,553
 128 408 128 408 133 406 c 0,554,555
 137 406 137 406 149 409 c 256,556,557
 161 412 161 412 166 408 c 128,-1,558
 171 404 171 404 171 400 c 128,-1,463
 171 396 171 396 165 390.5 c 128,-1,464
162 401 m 1,559,560
 163 394 163 394 157.5 393.5 c 128,-1,561
 152 393 152 393 144 395.5 c 128,-1,562
 136 398 136 398 132 398 c 1,563,564
 142 403 142 403 162 401 c 1,559,560
164 3 m 1,565,566
 171 5 171 5 173.5 4.5 c 128,-1,567
 176 4 176 4 184.5 4.5 c 128,-1,568
 193 5 193 5 196 4 c 1,569,570
 181 2 181 2 173.5 2 c 128,-1,571
 166 2 166 2 164 3 c 1,565,566
133 580 m 1,572,573
 141 574 141 574 134 572 c 128,-1,574
 127 570 127 570 126 576 c 1,575,-1
 133 580 l 1,572,573
132 429 m 1,576,577
 126 432 126 432 105 439 c 1,578,579
 107 439 107 439 114.5 442.5 c 128,-1,580
 122 446 122 446 125.5 444 c 128,-1,581
 129 442 129 442 136 440 c 1,582,583
 135 438 135 438 132 429 c 1,576,577
127 506 m 1,584,-1
 123 506 l 1,585,586
 116 511 116 511 103 522 c 0,587,588
 104 525 104 525 105.5 525 c 128,-1,589
 107 525 107 525 118 519 c 128,-1,590
 129 513 129 513 129 508 c 1,591,-1
 127 506 l 1,584,-1
119 579 m 1,592,593
 108 590 108 590 97 590 c 256,594,595
 86 590 86 590 86 582 c 0,596,597
 86 579 86 579 89 576 c 1,598,-1
 85 576 l 1,599,600
 80 574 80 574 75 566 c 1,601,602
 85 556 85 556 106 543 c 0,603,604
 112 542 112 542 109 535 c 0,605,606
 105 535 105 535 88 546 c 0,607,608
 60 571 60 571 63 583 c 0,609,610
 69 594 69 594 98 597 c 1,611,612
 110 592 110 592 115 590 c 128,-1,613
 120 588 120 588 121 581 c 1,614,-1
 119 579 l 1,592,593
119 454 m 1,615,616
 118 466 118 466 108 476 c 1,617,618
 112 478 112 478 115 474.5 c 128,-1,619
 118 471 118 471 124 458 c 1,620,-1
 119 454 l 1,615,616
116 495 m 1,621,622
 108 497 108 497 98 505 c 0,623,624
 99 508 99 508 102 509 c 0,625,626
 103 508 103 508 112 504.5 c 128,-1,627
 121 501 121 501 119 495 c 1,628,-1
 116 495 l 1,621,622
115 398 m 0,629,630
 113 400 113 400 113 401 c 0,631,632
 114 402 114 402 117 402 c 0,633,634
 118 400 118 400 124 401 c 0,635,636
 125 400 125 400 126 398 c 1,637,638
 119 400 119 400 115 398 c 0,629,630
116 405 m 1,639,640
 113 405 113 405 108.764705882 399.705882353 c 128,-1,641
 104.529411765 394.411764706 104.529411765 394.411764706 96 391 c 1,642,643
 96 398 96 398 94 411 c 1,644,645
 101 411 101 411 112 416 c 0,646,647
 115 414 115 414 122 413 c 1,648,-1
 116 405 l 1,639,640
104 445 m 0,649,650
 91.6153846154 445 91.6153846154 445 104 468 c 1,651,652
 112 464 112 464 111 451 c 1,653,-1
 114 449 l 1,654,655
 109 445 109 445 104 445 c 0,649,650
80 498 m 258,656,-1
 83 508 l 2,657,658
 83 510 83 510 91 502 c 1,659,-1
 94 502 l 1,660,-1
 94 499 l 1,661,662
 58.8796680498 474.56846473 58.8796680498 474.56846473 45 494 c 1,663,664
 47 509 47 509 65 513 c 1,665,-1
 66 513 l 1,666,667
 71 514 71 514 82 516.5 c 128,-1,668
 93 519 93 519 99 517 c 0,669,670
 99 515 99 515 97 512 c 0,671,672
 87 512 87 512 69 507.5 c 128,-1,673
 51 503 51 503 51 496 c 0,674,675
 51 494 51 494 58 492 c 0,676,677
 62 489 62 489 67 489 c 128,-1,678
 72 489 72 489 81 496 c 1,679,680
 80 497 80 497 80 498 c 258,656,-1
81 389 m 2,681,682
 75 389 75 389 63 395 c 1,683,684
 67 401 67 401 87 410 c 1,685,686
 90 406 90 406 88 390 c 1,687,-1
 81 389 l 2,681,682
53 421 m 1,688,689
 50.2084380241 420.708438024 50.2084380241 420.708438024 46 419 c 1,690,691
 48 424 48 424 45 432 c 1,692,693
 43 429 43 429 37 423 c 1,694,-1
 38 420 l 1,695,696
 33 420 33 420 25 424 c 1,697,698
 34 439 34 439 48 440 c 0,699,700
 51 440 51 440 56 437 c 1,701,702
 57 431 57 431 53 421 c 1,688,689
322 739 m 1,703,-1
 320 716 l 1,704,705
 321 715 321 715 322.5 715 c 128,-1,706
 324 715 324 715 325 716 c 0,707,708
 325 725 325 725 331 740 c 1,709,-1
 331 741 l 1,710,-1
 337 742 l 1,711,-1
 336 732 l 258,712,713
 336 730 336 730 341 730 c 1,714,715
 344 734 344 734 344 741 c 1,716,-1
 348 741 l 1,717,-1
 343 727 l 1,718,719
 343 724 343 724 344 720 c 1,720,721
 349 722 349 722 350.5 728 c 128,-1,722
 352 734 352 734 354 736 c 0,723,724
 354 738 354 738 353 740 c 1,725,-1
 359 741 l 1,726,727
 357 738 357 738 357 734 c 128,-1,728
 357 730 357 730 361 725 c 1,729,730
 365 738 365 738 365 740 c 0,731,732
 379 741 379 741 385 731 c 1,733,734
 388 733 388 733 392 731 c 1,735,736
 390 730 390 730 387 727 c 0,737,738
 387 725 387 725 390 722 c 0,739,740
 395 719 395 719 394.5 723 c 128,-1,741
 394 727 394 727 393 730 c 1,742,743
 396 730 396 730 413 718 c 1,744,745
 403 713 403 713 408 713 c 1,746,-1
 405 716 l 1,747,-1
 401 711 l 1,748,749
 401 719 401 719 398 723 c 1,750,751
 397 722 397 722 394 710 c 0,752,753
 395 707 395 707 396 707 c 128,-1,754
 397 707 397 707 401 709 c 1,755,756
 402 705 402 705 398 703 c 2,757,-1
 391 700 l 1,758,759
 388 702 388 702 389.5 707 c 128,-1,760
 391 712 391 712 388 713 c 1,761,762
 387 709 387 709 380 703 c 1,763,764
 385 698 385 698 383.5 696.5 c 128,-1,765
 382 695 382 695 383 690 c 1,766,767
 389 690 389 690 390 695 c 1,768,769
 393 694 393 694 403 704 c 0,770,771
 407 710 407 710 409 709 c 2,772,-1
 421 704 l 1,773,774
 419 702 419 702 418.5 698.5 c 128,-1,775
 418 695 418 695 413 692 c 1,776,-1
 414 690 l 1,777,778
 426 691 426 691 430 688 c 0,779,780
 438 671 438 671 438 659 c 128,-1,781
 438 647 438 647 435.5 638 c 128,-1,782
 433 629 433 629 428 606 c 1,783,784
 408 562 408 562 385 549 c 0,785,786
 381 543 381 543 366 538 c 2,787,-1
 342 530 l 2,788,789
 328 525 328 525 316 524.5 c 128,-1,790
 304 524 304 524 273 530 c 1,791,792
 235 548 235 548 219 603 c 1,793,-1
 218 620 l 1,794,795
 223 630 223 630 253 667 c 0,796,797
 262 678 262 678 292 699 c 0,798,799
 292 703 292 703 293 711 c 1,800,801
 289 714 289 714 288 713 c 1,802,803
 286 717 286 717 282 724 c 1,804,805
 285 721 285 721 288 722 c 0,806,807
 288 725 288 725 290 728 c 1,808,809
 292 720 292 720 301 710 c 1,810,811
 302 713 302 713 302 716.5 c 128,-1,812
 302 720 302 720 298 726 c 1,813,-1
 298 732 l 1,814,815
 304 731 304 731 312 738 c 0,816,817
 315 739 315 739 316 738 c 0,818,819
 313 732 313 732 313 727 c 0,820,821
 315 726 315 726 318 727 c 0,822,823
 318 732 318 732 322 739 c 1,703,-1
324 553 m 0,824,825
 322 550 322 550 316 550 c 2,826,-1
 305 550 l 2,827,828
 292 550 292 550 267 552 c 1,829,830
 268 556 268 556 264 561 c 1,831,832
 265 558 265 558 267 566 c 1,833,834
 284 566 284 566 320 562 c 1,835,-1
 319 565 l 1,836,837
 308 575 308 575 280 582 c 0,838,839
 278 580 278 580 278 574 c 1,840,-1
 274 570 l 1,841,842
 274 575 274 575 270 582 c 1,843,844
 267 579 267 579 262 579 c 256,845,846
 256 579 256 579 247 585 c 0,847,848
 245 589 245 589 252 596 c 1,849,850
 259 597 259 597 273 600 c 1,851,-1
 294 596 l 1,852,853
 306 592 306 592 330 568 c 0,854,855
 330 566 330 566 326 561.5 c 128,-1,856
 322 557 322 557 324 553 c 0,824,825
296 632 m 1,857,858
 286 635 286 635 287 638 c 1,859,860
 296 649 296 649 300 647 c 0,861,862
 303 644 303 644 303 640 c 128,-1,863
 303 636 303 636 296 632 c 1,857,858
278 632 m 1,864,865
 272 631 272 631 269 638 c 0,866,867
 269 642 269 642 274 648 c 0,868,869
 277 647 277 647 283 640 c 0,870,871
 282 637 282 637 278 632 c 1,864,865
280 558 m 1,872,873
 289 560 289 560 302 558 c 1,874,875
 290 557 290 557 280 558 c 1,872,873
408 600 m 1,876,877
 406 601 406 601 402 602 c 1,878,-1
 405 605 l 1,879,-1
 384 663 l 2,880,881
 375 689 375 689 355 717 c 0,882,883
 355 720 355 720 357 722 c 1,884,885
 361 716 361 716 370 708 c 1,886,887
 374 714 374 714 380 727 c 0,888,889
 381 728 381 728 383 727 c 0,890,891
 383 719 383 719 377 715 c 1,892,893
 377 710 377 710 373 701 c 1,894,-1
 409 607 l 2,895,896
 410 604 410 604 408 600 c 1,876,877
395 606 m 1,897,898
 394 610 394 610 391 615 c 128,-1,899
 388 620 388 620 384.5 632 c 128,-1,900
 381 644 381 644 370.5 665 c 128,-1,901
 360 686 360 686 355 697 c 0,902,903
 350 702 350 702 342 714 c 0,904,905
 344 716 344 716 346 716 c 0,906,907
 354 711 354 711 369 679.5 c 128,-1,908
 384 648 384 648 396 607 c 1,909,-1
 395 606 l 1,897,898
378 602 m 1,910,911
 372 621 372 621 360 660 c 1,912,913
 344 693 344 693 330 709 c 1,914,-1
 332 722 l 2,915,916
 332 723 332 723 335 723 c 1,917,918
 334 719 334 719 335 711 c 1,919,920
 346 698 346 698 352.5 682 c 1,921,-1
 366 656 l 1,922,923
 366 653 366 653 377 632.5 c 128,-1,924
 388 612 388 612 378 602 c 1,910,911
422 676 m 1,925,-1
 422 681 l 1,926,927
 424 682 424 682 427 680 c 0,928,929
 426 675 426 675 422 676 c 1,925,-1
EndSplineSet
Validated: 524325
EndChar

StartChar: one
Encoding: 49 49 20
Width: 527
Flags: W
LayerCount: 2
Back
Fore
SplineSet
462 630 m 1024,0,-1
459 635 m 1,1,2
 459 638 459 638 457 642 c 1,3,4
 459 640 459 640 459 635 c 1,1,2
456 643 m 1,5,6
 453 650 453 650 448 665 c 1,7,8
 455 651 455 651 456 643 c 1,5,6
433 663 m 1,9,-1
 434 663 l 1,10,-1
 434 661 l 1,11,-1
 433 663 l 1,9,-1
415 702 m 2,12,13
 416 704 416 704 428 709 c 2,14,-1
 415 702 l 2,12,13
446 18 m 0,15,16
 445 19 445 19 442 18 c 0,17,18
 440 19 440 19 439 20 c 1,19,20
 451 27 451 27 454 27 c 0,21,22
 458 27 458 27 461 24 c 1,23,24
 456 23 456 23 446 18 c 0,15,16
387 692 m 2,25,-1
 383 693 l 2,26,27
 383 696 383 696 387 700 c 0,28,29
 389 699 389 699 391 697 c 0,30,31
 390 693 390 693 387 692 c 2,25,-1
397 26 m 1,32,33
 405 27 405 27 422 30 c 1,34,-1
 433 29 l 2,35,36
 425 26 425 26 397 26 c 1,32,33
350 724 m 2,37,-1
 347 723 l 1,38,39
 349 729 349 729 352 733 c 1,40,-1
 355 732 l 1,41,42
 356 725 356 725 350 724 c 2,37,-1
383 56 m 2,43,-1
 382 56 l 1,44,45
 381 60 381 60 384 60 c 1,46,47
 384 56 384 56 383 56 c 2,43,-1
365 75 m 1,48,49
 363 77 363 77 366 82 c 0,50,51
 370 84 370 84 370 83 c 0,52,53
 370 80 370 80 365 75 c 1,48,49
368 26 m 2,54,55
 367 27 367 27 367 28 c 0,56,57
 368 31 368 31 371 34 c 2,58,-1
 368 26 l 2,54,55
287 714 m 1,59,-1
 288 721 l 2,60,61
 290 722 290 722 293 716 c 2,62,-1
 293 714 l 1,63,-1
 287 714 l 1,59,-1
140 489 m 2,64,65
 143 498 143 498 143 505 c 0,66,67
 143 510 143 510 140 514.5 c 128,-1,68
 137 519 137 519 138 524 c 0,69,70
 141 533 141 533 145 552 c 1,71,72
 155 548 155 548 164 548 c 0,73,74
 171 548 171 548 178 551 c 0,75,76
 186 561 186 561 183 569 c 0,77,78
 174 578 174 578 174 579 c 0,79,80
 179 588 179 588 191 605 c 1,81,82
 201 546 201 546 250 519 c 0,83,84
 259 517 259 517 267 515 c 0,85,86
 277 512 277 512 285 515 c 0,87,88
 290 516 290 516 302 515 c 1,89,90
 302 483 302 483 297 420 c 1,91,92
 295 425 295 425 289.5 423 c 128,-1,93
 284 421 284 421 282 424 c 0,94,95
 275 428 275 428 269 428 c 0,96,97
 235 437 235 437 164 470 c 0,98,99
 157 472 157 472 141 479 c 1,100,-1
 138 476 l 1,101,102
 138 476 138 476 144 473 c 0,103,104
 221 435 221 435 297 415 c 1,105,106
 297 388 297 388 296 377 c 0,107,108
 293 348 293 348 286 273 c 1,109,110
 275 266 275 266 254 250 c 1,111,112
 228 222 228 222 215 174 c 0,113,114
 209 152 209 152 200 89 c 1,115,-1
 190 89 l 2,116,117
 189 88 189 88 188 84 c 0,118,119
 192 80 192 80 192 71 c 2,120,-1
 192 57 l 2,121,122
 194 51 194 51 194 43 c 0,123,124
 194 37 194 37 193 29 c 1,125,126
 178 29 178 29 162 23 c 0,127,128
 137 17 137 17 128 6 c 1,129,130
 131 -2 131 -2 150 -8 c 1,131,132
 181 -5 181 -5 209 4 c 0,133,134
 215 6 215 6 222 11 c 1,135,136
 223 24 223 24 224 49 c 0,137,138
 223 52 223 52 225 59 c 0,139,140
 226 71 226 71 224 93 c 1,141,142
 219 91 219 91 208 92 c 1,143,144
 208 102 208 102 211.5 120.5 c 128,-1,145
 215 139 215 139 215 149 c 0,146,147
 218 170 218 170 234 209 c 0,148,149
 235 215 235 215 259 247 c 0,150,151
 261 247 261 247 264.5 250.5 c 128,-1,152
 268 254 268 254 270 254 c 0,153,154
 284 263 284 263 290 267 c 1,155,156
 310 255 310 255 324 229 c 0,157,158
 328 216 328 216 351 162 c 0,159,160
 369 120 369 120 370 91 c 1,161,162
 365 91 365 91 357 87 c 1,163,164
 356 80 356 80 356 71 c 0,165,166
 356 55 356 55 360 34 c 0,167,168
 359 30 359 30 359 23 c 256,169,170
 359 16 359 16 360 7 c 0,171,172
 362 4 362 4 365 5 c 0,173,174
 375 15 375 15 373 15 c 1,175,176
 376 15 376 15 380 7 c 1,177,178
 409 10 409 10 450 12 c 0,179,180
 453 12 453 12 459.5 14.5 c 128,-1,181
 466 17 466 17 468 17 c 2,182,-1
 485 16 l 2,183,184
 486 18 486 18 484 20 c 128,-1,185
 482 22 482 22 465.5 29 c 128,-1,186
 449 36 449 36 419 36 c 0,187,188
 406 36 406 36 389 34 c 1,189,190
 389 42 389 42 390 52 c 0,191,192
 392 82 392 82 391 99 c 0,193,194
 388 100 388 100 377 94 c 1,195,196
 371 126 371 126 356 169 c 0,197,198
 349 189 349 189 320 246 c 0,199,200
 308 264 308 264 294 276 c 1,201,202
 294 273 294 273 298 329 c 0,203,204
 298 331 298 331 304 420 c 1,205,206
 315 421 315 421 325 429 c 1,207,208
 350 438 350 438 394 466 c 0,209,210
 402 474 402 474 437 506 c 0,211,212
 454 522 454 522 482 562 c 1,213,214
 497 564 497 564 519 586 c 0,215,216
 522 588 522 588 530 597 c 1,217,218
 522 595 522 595 508.5 584 c 128,-1,219
 495 573 495 573 487 571 c 1,220,221
 498 600 498 600 524 631 c 0,222,223
 524 634 524 634 522 637 c 0,224,225
 513 636 513 636 480 573 c 1,226,-1
 476 569 l 1,227,228
 474 583 474 583 481 601 c 0,229,230
 488 615 488 615 494 630 c 0,231,232
 492 633 492 633 489 632 c 0,233,234
 484 626 484 626 466 566 c 1,235,236
 465 567 465 567 464 567 c 0,237,238
 453 572 453 572 453 576 c 0,239,240
 445 584 445 584 443 583 c 0,241,242
 441 579 441 579 445 573 c 2,243,-1
 449 566 l 2,244,245
 457 558 457 558 464 559 c 0,246,247
 467 559 467 559 470 556 c 1,248,249
 429 492 429 492 338 439 c 0,250,251
 327 434 327 434 304 428 c 1,252,-1
 305 432 l 1,253,254
 304 463 304 463 309 511 c 0,255,256
 310 516 310 516 310.5 519 c 128,-1,257
 311 522 311 522 311 520 c 1,258,259
 319 523 319 523 320 523 c 0,260,261
 336 527 336 527 365 541 c 0,262,263
 376 549 376 549 397 570 c 1,264,265
 425 613 425 613 425 651 c 0,266,267
 425 660 425 660 423 669 c 1,268,-1
 424 670 l 1,269,270
 428 662 428 662 442 620 c 1,271,-1
 444 621 l 1,272,273
 440 633 440 633 436 658 c 1,274,275
 443 643 443 643 446 630 c 0,276,277
 446 624 446 624 450 613 c 1,278,-1
 452 615 l 1,279,-1
 452 619 l 1,280,281
 447 640 447 640 430 682 c 0,282,283
 424 697 424 697 423 697 c 1,284,285
 424 696 424 696 439 670 c 0,286,287
 447 656 447 656 460 615 c 1,288,289
 456 614 456 614 457 611 c 0,290,291
 458 610 458 610 460 610 c 256,292,293
 462 610 462 610 463 611 c 2,294,-1
 463 622 l 1,295,296
 467 612 467 612 467 607 c 0,297,298
 467 604 467 604 466 602 c 1,299,300
 468 603 468 603 471 603 c 0,301,302
 473 611 473 611 469 622 c 2,303,-1
 462 641 l 2,304,305
 455 661 455 661 434 704 c 1,306,-1
 437 707 l 2,307,308
 438 710 438 710 435 715 c 0,309,310
 434 715 434 715 431 713 c 0,311,312
 430 714 430 714 429 716 c 1,313,314
 427 715 427 715 424 715 c 0,315,316
 423 715 423 715 415 718 c 0,317,318
 409 720 409 720 407 718 c 0,319,320
 402 720 402 720 399 726 c 1,321,322
 402 729 402 729 401 731 c 0,323,324
 399 732 399 732 394 729 c 1,325,326
 389 731 389 731 391 734 c 0,327,328
 393 739 393 739 392 741 c 0,329,330
 390 741 390 741 386 736 c 0,331,332
 385 735 385 735 383 735 c 256,333,334
 381 735 381 735 380 737 c 0,335,336
 382 739 382 739 382 744 c 0,337,338
 379 746 379 746 377.5 742.5 c 128,-1,339
 376 739 376 739 374 739 c 2,340,-1
 371 746 l 2,341,342
 368 745 368 745 366.5 749 c 128,-1,343
 365 753 365 753 364 753 c 0,344,345
 357 746 357 746 358 746 c 1,346,347
 357 746 357 746 356.5 750 c 128,-1,348
 356 754 356 754 352 753 c 1,349,350
 353 750 353 750 342 749 c 1,351,352
 342 751 342 751 341 754 c 0,353,354
 338 756 338 756 336 752 c 128,-1,355
 334 748 334 748 332 748 c 0,356,357
 331 748 331 748 330 749 c 0,358,359
 327 757 327 757 324 757 c 2,360,-1
 323 750 l 2,361,362
 322 752 322 752 318 756 c 0,363,364
 316 758 316 758 315 756 c 0,365,366
 314 753 314 753 313 751 c 2,367,-1
 301 748 l 2,368,369
 301 751 301 751 300 754 c 2,370,-1
 298 754 l 1,371,372
 297 747 297 747 288 744 c 0,373,374
 276 740 276 740 275 739 c 2,375,-1
 273 740 l 1,376,-1
 269 736 l 2,377,378
 268 735 268 735 266 735 c 0,379,380
 265 735 265 735 264 736 c 0,381,382
 260 738 260 738 259 738 c 2,383,-1
 259 732 l 1,384,-1
 256 732 l 2,385,386
 256 735 256 735 253 734 c 0,387,388
 251 733 251 733 250 733 c 0,389,390
 248 733 248 733 247 734 c 0,391,392
 237 730 237 730 187 719 c 0,393,394
 150 711 150 711 133 691 c 0,395,396
 130 689 130 689 132 683 c 1,397,398
 136 684 136 684 170 700 c 0,399,400
 177 703 177 703 187 710 c 0,401,402
 189 710 189 710 194 712.5 c 128,-1,403
 199 715 199 715 205 714 c 1,404,405
 198 710 198 710 190 706 c 2,406,-1
 167 695 l 2,407,408
 154 689 154 689 150 677 c 0,409,410
 151 675 151 675 153 675 c 2,411,-1
 153 679 l 1,412,413
 164 691 164 691 217 710 c 0,414,415
 221 712 221 712 228 712 c 1,416,417
 213 696 213 696 208 685 c 0,418,419
 203 668 203 668 184 639 c 0,420,421
 159 598 159 598 156 593 c 2,422,-1
 155 592 l 1,423,-1
 148 599 l 1,424,425
 148 609 148 609 138 626 c 1,426,427
 130 627 130 627 124 608 c 1,428,429
 121 612 121 612 117 611 c 0,430,431
 116 610 116 610 112 606.5 c 128,-1,432
 108 603 108 603 108 600 c 0,433,434
 101 596 101 596 103 585 c 0,435,436
 105 582 105 582 108 584 c 0,437,438
 110 586 110 586 112 584 c 0,439,440
 117 583 117 583 123 588 c 0,441,442
 127 589 127 589 129.5 585 c 128,-1,443
 132 581 132 581 134 581 c 256,444,445
 136 581 136 581 138 582 c 1,446,447
 140 571 140 571 141 573 c 1,448,449
 141 570 141 570 145 566 c 1,450,451
 164 572 164 572 165 571 c 0,452,453
 164 567 164 567 160 558 c 1,454,455
 154 560 154 560 141 560 c 0,456,457
 138 558 138 558 137 551 c 1,458,-1
 109 548 l 1,459,-1
 109 544 l 1,460,461
 113 541 113 541 122.5 542.5 c 128,-1,462
 132 544 132 544 135 541 c 0,463,464
 135 535 135 535 133 530 c 1,465,-1
 131 532 l 1,466,467
 118 532 118 532 95 535 c 0,468,469
 94 535 94 535 95 533 c 0,470,471
 99 533 99 533 124 524 c 1,472,473
 109 521 109 521 109 516 c 1,474,475
 113 514 113 514 126 518 c 0,476,477
 135 517 135 517 137 508 c 1,478,479
 133 500 133 500 133 487 c 1,480,-1
 138 483 l 1,481,-1
 140 489 l 2,64,65
214 679 m 1,482,483
 223 706 223 706 253 720 c 1,484,-1
 258 720 l 1,485,486
 235 703 235 703 214 679 c 1,482,483
201 643 m 1,487,488
 202 658 202 658 239 692 c 0,489,490
 242 696 242 696 253 702 c 1,491,492
 235 683 235 683 201 643 c 1,487,488
198 628 m 1,493,494
 197 634 197 634 207 642 c 1,495,-1
 198 628 l 1,493,494
169 598 m 2,496,-1
 160 582 l 2,497,498
 159 586 159 586 162 590 c 0,499,500
 170 608 170 608 191 640 c 1,501,502
 191 629 191 629 169 598 c 2,496,-1
169 580 m 1,503,-1
 166 579 l 2,504,505
 167 582 167 582 174 597 c 2,506,-1
 189 619 l 1,507,-1
 189 614 l 1,508,509
 182 605 182 605 169 580 c 1,503,-1
145 694 m 1,510,511
 148 701 148 701 175 711 c 1,512,513
 165 703 165 703 145 694 c 1,510,511
171 559 m 2,514,-1
 165 558 l 1,515,516
 165 566 165 566 170 571 c 0,517,518
 175 571 175 571 177 567 c 0,519,520
 178 560 178 560 171 559 c 2,514,-1
218 82 m 2,521,-1
 216 82 l 1,522,-1
 216 85 l 2,523,524
 217 84 217 84 218 82 c 2,521,-1
214 24 m 1,525,-1
 215 26 l 1,526,-1
 215 24 l 1,527,-1
 214 24 l 1,525,-1
206 26 m 1,528,529
 207 31 207 31 211 35 c 1,530,531
 208 29 208 29 206 26 c 1,528,529
138 608 m 1,532,-1
 129 608 l 1,533,534
 130 617 130 617 135 620 c 1,535,536
 139 614 139 614 138 608 c 1,532,-1
128 388 m 0,538,539
 114 392 114 392 110 393 c 0,540,541
 89 396 89 396 85 390 c 0,542,543
 76 383 76 383 63 383 c 0,544,545
 54 383 54 383 42 387 c 0,546,547
 34 391 34 391 37 397 c 0,548,549
 49 414 49 414 82 421 c 1,550,-1
 81 423 l 1,551,-1
 59 432 l 1,552,553
 52 430 52 430 53 430 c 1,554,555
 50 431 50 431 48 438 c 0,556,557
 44 439 44 439 42 435 c 0,558,559
 41 429 41 429 42 426 c 2,560,-1
 46 424 l 1,561,562
 43 415 43 415 17 414 c 0,563,564
 9 414 9 414 -3 422 c 1,565,566
 0 438 0 438 24 446 c 0,567,568
 26 447 26 447 47 444 c 2,569,-1
 48 444 l 1,570,571
 50 457 50 457 58 485 c 0,572,573
 59 486 59 486 60 486 c 0,574,575
 62 486 62 486 64 483 c 0,576,577
 61 477 61 477 58 465 c 1,578,579
 71 465 71 465 71 459 c 0,580,581
 71 457 71 457 70 455 c 0,582,583
 67 453 67 453 63 455 c 0,584,585
 58 458 58 458 56 458 c 0,586,587
 53 448 53 448 55 441 c 1,588,589
 72 435 72 435 106 418 c 1,590,-1
 110 422 l 2,591,592
 108 423 108 423 104 424 c 0,593,594
 93 428 93 428 71 437 c 0,595,596
 70 439 70 439 74 443 c 0,597,598
 73 447 73 447 73 451 c 0,599,600
 73 458 73 458 77 466 c 1,601,602
 69 467 69 467 65 472 c 0,603,604
 65 476 65 476 66 477 c 0,605,606
 73 474 73 474 77 474 c 0,607,608
 80 474 80 474 82 476 c 0,609,610
 83 478 83 478 82 482 c 2,611,-1
 73 489 l 2,612,613
 76 488 76 488 80 488 c 0,614,615
 87 488 87 488 96 491 c 0,616,617
 97 490 97 490 99 489 c 0,618,619
 100 488 100 488 97 486.5 c 128,-1,620
 94 485 94 485 94 482 c 0,621,622
 98 478 98 478 110 469 c 1,623,624
 111 474 111 474 103 487 c 1,625,-1
 106 487 l 1,626,-1
 113 483 l 2,627,628
 114 484 114 484 117 484 c 0,629,630
 119 478 119 478 106 450 c 1,631,632
 110 450 110 450 119 447 c 1,633,634
 121 452 121 452 123 474 c 0,635,636
 127 476 127 476 128 474 c 0,637,638
 128 445 128 445 110 411 c 0,639,640
 108 408 108 408 113 406 c 0,641,642
 117 406 117 406 129 409 c 256,643,644
 141 412 141 412 148 407 c 0,645,646
 151 404 151 404 151 401 c 0,647,648
 151 396 151 396 145 390.5 c 128,-1,537
 139 385 139 385 128 388 c 0,538,539
136 393 m 0,649,650
 132 393 132 393 124 395.5 c 128,-1,651
 116 398 116 398 112 398 c 1,652,653
 122 403 122 403 142 401 c 1,654,655
 143 394 143 394 136 393 c 0,649,650
144 3 m 1,656,657
 151 5 151 5 152 5 c 0,658,659
 156 4 156 4 164 4 c 0,660,661
 173 5 173 5 176 4 c 1,662,663
 161 2 161 2 152 2 c 0,664,665
 146 2 146 2 144 3 c 1,656,657
113 572 m 0,666,667
 107 570 107 570 106 576 c 1,668,-1
 113 580 l 1,669,670
 121 574 121 574 113 572 c 0,666,667
112 429 m 1,671,672
 106 432 106 432 85 439 c 1,673,674
 87 439 87 439 94.5 442.5 c 128,-1,675
 102 446 102 446 107 444 c 0,676,677
 109 442 109 442 116 440 c 1,678,679
 115 438 115 438 112 429 c 1,671,672
107 506 m 1,680,-1
 103 506 l 1,681,682
 96 511 96 511 83 522 c 0,683,684
 84 525 84 525 86 525 c 0,685,686
 87 525 87 525 102 517 c 0,687,688
 109 513 109 513 109 508 c 2,689,-1
 107 506 l 1,680,-1
99 579 m 1,690,691
 88 590 88 590 77 590 c 0,692,693
 67 590 67 590 67 582 c 0,694,695
 67 579 67 579 69 576 c 2,696,-1
 65 576 l 2,697,698
 60 574 60 574 55 566 c 1,699,700
 65 556 65 556 86 543 c 0,701,702
 92 542 92 542 89 535 c 0,703,704
 85 535 85 535 68 546 c 0,705,706
 40 571 40 571 43 583 c 0,707,708
 49 594 49 594 78 597 c 1,709,710
 90 592 90 592 92 592 c 0,711,712
 100 588 100 588 101 581 c 1,713,-1
 99 579 l 1,690,691
99 454 m 1,714,715
 98 466 98 466 88 476 c 1,716,717
 92 478 92 478 92 477 c 0,718,719
 98 471 98 471 104 458 c 1,720,-1
 99 454 l 1,714,715
96 495 m 2,721,722
 88 497 88 497 78 505 c 0,723,724
 79 508 79 508 82 509 c 0,725,726
 83 508 83 508 92 504.5 c 128,-1,727
 101 501 101 501 99 495 c 1,728,-1
 96 495 l 2,721,722
95 398 m 0,729,730
 93 400 93 400 93 401 c 0,731,732
 94 402 94 402 97 402 c 0,733,734
 98 400 98 400 104 401 c 0,735,736
 105 400 105 400 106 398 c 1,737,738
 99 400 99 400 95 398 c 0,729,730
96 405 m 2,739,740
 93 405 93 405 89 400 c 128,-1,741
 85 395 85 395 83 394 c 128,-1,742
 81 393 81 393 76 391 c 1,743,744
 76 398 76 398 74 411 c 1,745,746
 81 411 81 411 92 416 c 0,747,748
 95 414 95 414 102 413 c 1,749,-1
 96 405 l 2,739,740
79 447 m 0,750,751
 77 455 77 455 84 468 c 1,752,753
 92 464 92 464 91 451 c 1,754,-1
 94 449 l 1,755,756
 89 445 89 445 84 445 c 0,757,758
 81 445 81 445 79 447 c 0,750,751
77 512 m 0,759,760
 67 512 67 512 51 508 c 0,761,762
 31 503 31 503 31 496 c 0,763,764
 31 494 31 494 38 492 c 0,765,766
 42 489 42 489 46 489 c 0,767,768
 52 489 52 489 61 496 c 1,769,770
 60 497 60 497 60 498 c 256,771,772
 60 499 60 499 61.5 502 c 128,-1,773
 63 505 63 505 63 508 c 0,774,775
 63 510 63 510 65 508 c 0,776,777
 66 507 66 507 67.5 503.5 c 128,-1,778
 69 500 69 500 71 502 c 2,779,-1
 74 502 l 1,780,-1
 74 499 l 1,781,782
 51 483 51 483 41 485 c 0,783,784
 30 487 30 487 25 494 c 1,785,786
 27 509 27 509 45 513 c 1,787,-1
 46 513 l 2,788,789
 51 514 51 514 61 517 c 0,790,791
 73 519 73 519 79 517 c 0,792,793
 79 515 79 515 77 512 c 0,759,760
61 389 m 2,794,795
 55 389 55 389 43 395 c 1,796,797
 47 401 47 401 67 410 c 1,798,799
 70 406 70 406 68 390 c 1,800,-1
 61 389 l 2,794,795
33 421 m 1,801,-1
 34 421 l 2,802,803
 31 421 31 421 26 419 c 1,804,805
 28 424 28 424 25 432 c 1,806,807
 23 429 23 429 17 423 c 1,808,-1
 18 420 l 1,809,810
 13 420 13 420 5 424 c 1,811,812
 14 439 14 439 28 440 c 0,813,814
 31 440 31 440 36 437 c 1,815,816
 37 431 37 431 33 421 c 1,801,-1
408 606 m 1,817,818
 388 562 388 562 365 549 c 0,819,820
 360 543 360 543 346 538 c 2,821,-1
 322 530 l 2,822,823
 308 525 308 525 287 525 c 0,824,825
 284 524 284 524 253 530 c 1,826,827
 215 548 215 548 199 603 c 1,828,-1
 198 620 l 1,829,830
 203 630 203 630 233 667 c 0,831,832
 242 678 242 678 272 699 c 0,833,834
 272 703 272 703 273 711 c 1,835,836
 269 714 269 714 268 713 c 1,837,838
 266 717 266 717 262 724 c 1,839,840
 265 721 265 721 268 722 c 0,841,842
 268 725 268 725 270 728 c 1,843,844
 272 720 272 720 281 710 c 1,845,846
 282 713 282 713 282 715 c 0,847,848
 282 720 282 720 278 726 c 1,849,-1
 278 732 l 1,850,851
 284 731 284 731 292 738 c 0,852,853
 295 739 295 739 296 738 c 0,854,855
 293 732 293 732 293 727 c 0,856,857
 295 726 295 726 298 727 c 0,858,859
 298 732 298 732 302 739 c 1,860,861
 301 737 301 737 302 734 c 0,862,863
 302 732 302 732 300 716 c 0,864,865
 301 715 301 715 302 715 c 0,866,867
 304 715 304 715 305 716 c 0,868,869
 305 725 305 725 311 740 c 1,870,-1
 311 741 l 1,871,-1
 317 742 l 2,872,873
 318 740 318 740 317 737 c 256,874,875
 316 734 316 734 316 732 c 256,876,877
 316 730 316 730 321 730 c 1,878,879
 324 734 324 734 324 741 c 1,880,-1
 328 741 l 1,881,882
 323 725 323 725 323 727 c 1,883,884
 323 724 323 724 324 720 c 1,885,886
 329 722 329 722 330.5 728 c 128,-1,887
 332 734 332 734 334 736 c 0,888,889
 334 738 334 738 333 740 c 2,890,-1
 339 741 l 2,891,892
 337 738 337 738 337 735 c 0,893,894
 337 730 337 730 341 725 c 1,895,896
 345 738 345 738 345 740 c 0,897,898
 359 741 359 741 365 731 c 1,899,900
 368 733 368 733 372 731 c 1,901,902
 370 730 370 730 367 727 c 0,903,904
 367 725 367 725 370 722 c 0,905,906
 375 719 375 719 375 726 c 0,907,908
 374 727 374 727 373 730 c 1,909,910
 376 730 376 730 393 718 c 1,911,912
 383 713 383 713 388 713 c 2,913,-1
 385 716 l 1,914,-1
 381 711 l 1,915,916
 381 719 381 719 378 723 c 1,917,918
 377 722 377 722 374 710 c 0,919,920
 375 707 375 707 377 707 c 0,921,922
 378 707 378 707 379 708 c 2,923,-1
 381 709 l 1,924,925
 382 705 382 705 378 703 c 0,926,927
 371 700 371 700 371 700 c 2,928,929
 368 702 368 702 369.5 707 c 128,-1,930
 371 712 371 712 368 713 c 1,931,932
 367 709 367 709 360 703 c 1,933,934
 365 698 365 698 364 697 c 0,935,936
 362 695 362 695 363 690 c 1,937,938
 369 690 369 690 370 695 c 1,939,940
 373 694 373 694 383 704 c 0,941,942
 387 710 387 710 389 709 c 2,943,-1
 401 704 l 2,944,945
 399 702 399 702 398.5 698.5 c 128,-1,946
 398 695 398 695 393 692 c 1,947,-1
 394 690 l 1,948,949
 406 691 406 691 410 688 c 0,950,951
 418 671 418 671 418 653 c 0,952,953
 418 647 418 647 417 640 c 0,954,955
 413 629 413 629 408 606 c 1,817,818
304 553 m 0,956,957
 302 550 302 550 296 550 c 2,958,-1
 285 550 l 2,959,960
 272 550 272 550 247 552 c 1,961,962
 248 556 248 556 244 561 c 1,963,964
 245 558 245 558 247 566 c 1,965,966
 264 566 264 566 300 562 c 1,967,-1
 299 565 l 1,968,969
 288 575 288 575 260 582 c 0,970,971
 258 580 258 580 258 574 c 1,972,-1
 254 570 l 2,973,974
 254 575 254 575 250 582 c 1,975,976
 247 579 247 579 242 579 c 256,977,978
 237 579 237 579 231 582 c 0,979,980
 230 583 230 583 227 585 c 0,981,982
 225 589 225 589 232 596 c 1,983,984
 239 597 239 597 253 600 c 1,985,-1
 274 596 l 2,986,987
 286 592 286 592 310 568 c 0,988,989
 310 566 310 566 306 561.5 c 128,-1,990
 302 557 302 557 304 553 c 0,956,957
276 632 m 1,991,992
 266 635 266 635 267 638 c 2,993,994
 267 638 267 638 271.5 643.5 c 128,-1,995
 276 649 276 649 280 647 c 0,996,997
 283 644 283 644 283 641 c 0,998,999
 283 636 283 636 276 632 c 1,991,992
258 632 m 1,1000,1001
 252 631 252 631 249 638 c 0,1002,1003
 249 642 249 642 254 648 c 0,1004,1005
 257 647 257 647 263 640 c 0,1006,1007
 262 637 262 637 258 632 c 1,1000,1001
260 558 m 1,1008,1009
 269 560 269 560 282 558 c 1,1010,1011
 270 557 270 557 260 558 c 1,1008,1009
388 600 m 1,1012,1013
 386 601 386 601 382 602 c 2,1014,-1
 385 605 l 1,1015,-1
 364 663 l 2,1016,1017
 355 689 355 689 335 717 c 0,1018,1019
 335 720 335 720 337 722 c 1,1020,1021
 341 716 341 716 350 708 c 1,1022,1023
 354 714 354 714 360 727 c 0,1024,1025
 361 728 361 728 363 727 c 0,1026,1027
 363 719 363 719 357 715 c 1,1028,1029
 357 710 357 710 353 701 c 1,1030,-1
 389 607 l 2,1031,1032
 390 604 390 604 388 600 c 1,1012,1013
375 606 m 2,1033,1034
 374 610 374 610 370 618 c 0,1035,1036
 368 620 368 620 367 625 c 0,1037,1038
 361 644 361 644 343 681 c 0,1039,1040
 340 686 340 686 335 697 c 0,1041,1042
 330 702 330 702 322 714 c 0,1043,1044
 324 716 324 716 326 716 c 0,1045,1046
 334 711 334 711 358 660 c 0,1047,1048
 364 648 364 648 376 607 c 1,1049,-1
 375 606 l 2,1033,1034
358 602 m 1,1050,1051
 352 621 352 621 340 660 c 1,1052,1053
 324 693 324 693 310 709 c 1,1054,-1
 312 722 l 2,1055,1056
 312 723 312 723 315 723 c 1,1057,1058
 314 719 314 719 315 711 c 1,1059,1060
 326 698 326 698 338 670 c 0,1061,1062
 339 666 339 666 344 660 c 2,1063,-1
 346 656 l 2,1064,1065
 346 653 346 653 359 628 c 0,1066,1067
 368 612 368 612 360 604 c 2,1068,-1
 358 602 l 1,1050,1051
402 676 m 1,1069,-1
 402 681 l 2,1070,1071
 404 682 404 682 407 680 c 0,1072,1073
 406 675 406 675 402 676 c 1,1069,-1
EndSplineSet
Validated: 37
EndChar

StartChar: A
Encoding: 65 65 36
Width: 541
Flags: W
LayerCount: 2
Back
Fore
SplineSet
498 -18 m 0,0,1
 441 -18 441 -18 428 91 c 1,2,3
 398 41 398 41 348 11.5 c 128,-1,4
 298 -18 298 -18 240 -18 c 0,5,6
 148 -18 148 -18 85.5 45 c 128,-1,7
 23 108 23 108 23 200 c 0,8,9
 23 291 23 291 86 354 c 128,-1,10
 149 417 149 417 240 417 c 0,11,12
 305 417 305 417 363 378 c 0,13,14
 371 373 371 373 371 364 c 0,15,16
 371 346 371 346 353 346 c 0,17,18
 347 346 347 346 343 349 c 0,19,20
 296 382 296 382 240 382 c 0,21,22
 164 382 164 382 111 329 c 128,-1,23
 58 276 58 276 58 200 c 256,24,25
 58 124 58 124 111 71 c 128,-1,26
 164 18 164 18 240 18 c 256,27,28
 316 18 316 18 369 71 c 128,-1,29
 422 124 422 124 422 200 c 1,30,-1
 457 200 l 1,31,32
 462 18 462 18 498 18 c 0,33,34
 516 18 516 18 516 0 c 256,35,36
 516 -18 516 -18 498 -18 c 0,0,1
276 184 m 2,37,-1
 439 337 l 1,38,39
 373 366 373 366 377 457 c 0,40,41
 378 473 378 473 394 473 c 0,42,43
 413 473 413 473 412 455 c 0,44,45
 410 401 410 401 434 381 c 0,46,47
 451 367 451 367 508 354 c 1,48,-1
 300 158 l 2,49,50
 295 153 295 153 288 153 c 0,51,52
 270 153 270 153 270 171 c 0,53,54
 270 178 270 178 276 184 c 2,37,-1
EndSplineSet
Validated: 33
EndChar

StartChar: B
Encoding: 66 66 37
Width: 583
Flags: W
LayerCount: 2
Back
Fore
SplineSet
209 420 m 0,0,1
 209 438 209 438 226 438 c 0,2,3
 232 438 232 438 236 435 c 0,4,5
 284 402 284 402 340 402 c 0,6,7
 416 402 416 402 469 455 c 128,-1,8
 522 508 522 508 522 584 c 256,9,10
 522 660 522 660 469 713 c 128,-1,11
 416 766 416 766 340 766 c 256,12,13
 264 766 264 766 211 713 c 128,-1,14
 158 660 158 660 158 584 c 1,15,-1
 123 584 l 1,16,17
 118 766 118 766 81 766 c 0,18,19
 64 766 64 766 64 784 c 256,20,21
 64 802 64 802 81 802 c 0,22,23
 139 802 139 802 152 693 c 1,24,25
 182 743 182 743 232 772.5 c 128,-1,26
 282 802 282 802 340 802 c 0,27,28
 432 802 432 802 494.5 739 c 128,-1,29
 557 676 557 676 557 584 c 0,30,31
 557 495 557 495 494 431 c 0,32,33
 465 401 465 401 426 385 c 1,34,35
 465 368 465 368 494 338 c 0,36,37
 557 274 557 274 557 185 c 0,38,39
 557 93 557 93 494.5 30 c 128,-1,40
 432 -33 432 -33 340 -33 c 0,41,42
 185 -33 185 -33 117 96 c 1,43,44
 102 -33 102 -33 46 -33 c 0,45,46
 29 -33 29 -33 29 -15 c 256,47,48
 29 3 29 3 46 3 c 0,49,50
 88 3 88 3 88 195 c 2,51,-1
 88 448 l 1,52,-1
 279 626 l 2,53,54
 284 631 284 631 291 631 c 0,55,56
 309 631 309 631 309 613 c 0,57,58
 309 606 309 606 303 600 c 2,59,-1
 125 432 l 1,60,-1
 125 205 l 2,61,62
 125 127 125 127 177 76 c 0,63,64
 205 49 205 49 254 26 c 128,-1,65
 303 3 303 3 340 3 c 0,66,67
 416 3 416 3 469 56 c 128,-1,68
 522 109 522 109 522 185 c 256,69,70
 522 261 522 261 469 314 c 128,-1,71
 416 367 416 367 340 367 c 0,72,73
 284 367 284 367 236 334 c 0,74,75
 232 331 232 331 226 331 c 0,76,77
 209 331 209 331 209 349 c 0,78,79
 209 358 209 358 216 363 c 0,80,81
 234 376 234 376 256 385 c 1,82,83
 209 406 209 406 209 420 c 0,0,1
EndSplineSet
Validated: 1
EndChar

StartChar: C
Encoding: 67 67 38
Width: 419
Flags: W
LayerCount: 2
Back
Fore
SplineSet
236 382 m 0,0,1
 160 382 160 382 107 329 c 128,-1,2
 54 276 54 276 54 200 c 256,3,4
 54 124 54 124 107 71 c 128,-1,5
 160 18 160 18 236 18 c 0,6,7
 333 18 333 18 388 99 c 0,8,9
 393 107 393 107 402 107 c 0,10,11
 420 107 420 107 420 89 c 0,12,13
 420 84 420 84 417 80 c 0,14,15
 352 -18 352 -18 236 -18 c 0,16,17
 144 -18 144 -18 81.5 45 c 128,-1,18
 19 108 19 108 19 200 c 0,19,20
 19 291 19 291 82 354 c 128,-1,21
 145 417 145 417 236 417 c 0,22,23
 319 417 319 417 368 373 c 0,24,25
 379 363 379 363 374 352 c 2,26,-1
 319 269 l 2,27,28
 314 261 314 261 306 261 c 0,29,30
 287 261 287 261 287 279 c 0,31,32
 287 284 287 284 291 289 c 2,33,-1
 335 356 l 1,34,35
 300 382 300 382 236 382 c 0,0,1
EndSplineSet
Validated: 1
EndChar

StartChar: D
Encoding: 68 68 39
Width: 542
Flags: W
LayerCount: 2
Back
Fore
SplineSet
484 -18 m 0,0,1
 427 -18 427 -18 414 91 c 1,2,3
 384 41 384 41 334 11.5 c 128,-1,4
 284 -18 284 -18 226 -18 c 0,5,6
 134 -18 134 -18 71.5 45 c 128,-1,7
 9 108 9 108 9 200 c 0,8,9
 9 291 9 291 72 354 c 128,-1,10
 135 417 135 417 226 417 c 0,11,12
 294 417 294 417 349 378 c 0,13,14
 357 372 357 372 357 364 c 0,15,16
 357 346 357 346 340 346 c 0,17,18
 333 346 333 346 329 349 c 0,19,20
 282 382 282 382 226 382 c 0,21,22
 150 382 150 382 97 329 c 128,-1,23
 44 276 44 276 44 200 c 256,24,25
 44 124 44 124 97 71 c 128,-1,26
 150 18 150 18 226 18 c 256,27,28
 302 18 302 18 355 71 c 128,-1,29
 408 124 408 124 408 200 c 1,30,-1
 443 200 l 1,31,32
 448 18 448 18 484 18 c 0,33,34
 502 18 502 18 502 0 c 256,35,36
 502 -18 502 -18 484 -18 c 0,0,1
262 184 m 2,37,-1
 441 352 l 1,38,-1
 441 832 l 1,39,40
 471 793 471 793 474 790 c 0,41,42
 496 768 496 768 519 768 c 0,43,44
 526 768 526 768 536 770 c 0,45,46
 557 774 557 774 557 753 c 0,47,48
 557 738 557 738 543 736 c 0,49,50
 499 728 499 728 476 742 c 1,51,-1
 476 336 l 1,52,-1
 286 158 l 2,53,54
 281 153 281 153 274 153 c 0,55,56
 257 153 257 153 257 171 c 0,57,58
 257 178 257 178 262 184 c 2,37,-1
EndSplineSet
Validated: 33
EndChar

StartChar: E
Encoding: 69 69 40
Width: 433
Flags: W
LayerCount: 2
Back
Fore
SplineSet
420 80 m 0,0,1
 355 -18 355 -18 239 -18 c 0,2,3
 147 -18 147 -18 84.5 45 c 128,-1,4
 22 108 22 108 22 200 c 0,5,6
 22 291 22 291 85 354 c 128,-1,7
 148 417 148 417 239 417 c 0,8,9
 285 417 285 417 315 404 c 0,10,11
 342 392 342 392 378 360 c 1,12,-1
 201 142 l 1,13,14
 203 125 203 125 226 113 c 0,15,16
 245 103 245 103 265 103 c 0,17,18
 271 103 271 103 286 108 c 128,-1,19
 301 113 301 113 308 113 c 0,20,21
 322 113 322 113 322 95 c 0,22,23
 322 69 322 69 265 69 c 0,24,25
 224 69 224 69 195 91 c 0,26,27
 162 115 162 115 167 155 c 1,28,-1
 329 355 l 1,29,30
 293 382 293 382 239 382 c 0,31,32
 163 382 163 382 110 329 c 128,-1,33
 57 276 57 276 57 200 c 256,34,35
 57 124 57 124 110 71 c 128,-1,36
 163 18 163 18 239 18 c 0,37,38
 337 18 337 18 391 99 c 0,39,40
 397 108 397 108 405 108 c 0,41,42
 423 108 423 108 423 90 c 0,43,44
 423 85 423 85 420 80 c 0,0,1
EndSplineSet
Validated: 33
EndChar

StartChar: F
Encoding: 70 70 41
Width: 417
Flags: W
LayerCount: 2
Back
Fore
SplineSet
160 479 m 0,0,1
 73 527 73 527 73 625 c 0,2,3
 73 696 73 696 121.5 744 c 128,-1,4
 170 792 170 792 241 792 c 0,5,6
 307 792 307 792 356 747.5 c 128,-1,7
 405 703 405 703 405 637 c 0,8,9
 405 610 405 610 396 583 c 1,10,-1
 439 551 l 2,11,12
 447 545 447 545 447 536 c 0,13,14
 447 519 447 519 431 519 c 0,15,16
 424 519 424 519 419 523 c 2,17,-1
 352 572 l 1,18,19
 368 604 368 604 368 636 c 0,20,21
 368 688 368 688 329 723 c 128,-1,22
 290 758 290 758 237 758 c 0,23,24
 163 758 163 758 125 689 c 0,25,26
 109 660 109 660 109 626 c 0,27,28
 109 553 109 553 169 514 c 1,29,-1
 169 638 l 2,30,31
 169 655 169 655 187 655 c 256,32,33
 205 655 205 655 205 638 c 2,34,-1
 205 338 l 1,35,-1
 311 338 l 2,36,37
 328 338 328 338 328 321 c 0,38,39
 328 303 328 303 311 303 c 2,40,-1
 205 303 l 1,41,-1
 205 -5 l 2,42,43
 205 -22 205 -22 187 -22 c 256,44,45
 169 -22 169 -22 169 -5 c 2,46,-1
 169 303 l 1,47,-1
 88 303 l 1,48,49
 96 283 96 283 96 263 c 0,50,51
 96 221 96 221 49 177 c 0,52,53
 44 172 44 172 37 172 c 0,54,55
 19 172 19 172 19 190 c 0,56,57
 19 196 19 196 25 202 c 0,58,59
 61 236 61 236 61 264 c 0,60,61
 61 284 61 284 26 338 c 1,62,-1
 169 338 l 1,63,-1
 169 475 l 2,64,65
 167 475 167 475 160 479 c 0,0,1
EndSplineSet
Validated: 1
EndChar

StartChar: G
Encoding: 71 71 42
Width: 623
Flags: W
LayerCount: 2
Back
Fore
SplineSet
335 -21 m 1,0,1
 388 12 388 12 451 12 c 0,2,3
 559 12 559 12 624 -74 c 0,4,5
 668 -132 668 -132 668 -204 c 0,6,7
 668 -313 668 -313 581 -378 c 0,8,9
 522 -422 522 -422 452 -422 c 0,10,11
 364 -422 364 -422 300.5 -362 c 128,-1,12
 237 -302 237 -302 234 -214 c 0,13,14
 233 -195 233 -195 251 -195 c 0,15,16
 268 -195 268 -195 269 -212 c 0,17,18
 272 -286 272 -286 325 -336.5 c 128,-1,19
 378 -387 378 -387 452 -387 c 0,20,21
 511 -387 511 -387 560 -350 c 0,22,23
 633 -295 633 -295 633 -205 c 0,24,25
 633 -144 633 -144 596 -95 c 0,26,27
 542 -23 542 -23 458 -23 c 0,28,29
 389 -23 389 -23 326 -70 c 1,30,-1
 283 -5 l 1,31,32
 250 -18 250 -18 208 -18 c 0,33,34
 116 -18 116 -18 53.5 45 c 128,-1,35
 -9 108 -9 108 -9 200 c 0,36,37
 -9 291 -9 291 54 354 c 128,-1,38
 117 417 117 417 208 417 c 0,39,40
 268 417 268 417 319 386 c 1,41,-1
 377 443 l 2,42,43
 383 449 383 449 390 449 c 0,44,45
 407 449 407 449 407 430 c 0,46,47
 407 423 407 423 402 417 c 2,48,-1
 323 341 l 1,49,50
 265 382 265 382 208 382 c 0,51,52
 132 382 132 382 79 329 c 128,-1,53
 26 276 26 276 26 200 c 256,54,55
 26 124 26 124 79 71 c 128,-1,56
 132 18 132 18 208 18 c 0,57,58
 237 18 237 18 263 26 c 1,59,-1
 176 155 l 2,60,61
 173 159 173 159 173 165 c 0,62,63
 173 184 173 184 191 184 c 0,64,65
 199 184 199 184 205 175 c 2,66,-1
 295 39 l 1,67,68
 390 92 390 92 390 200 c 0,69,70
 390 217 390 217 407 217 c 0,71,72
 425 217 425 217 425 200 c 0,73,74
 425 141 425 141 395.5 90.5 c 128,-1,75
 366 40 366 40 315 11 c 1,76,-1
 335 -21 l 1,0,1
EndSplineSet
Validated: 1
EndChar

StartChar: H
Encoding: 72 72 43
Width: 458
Flags: W
LayerCount: 2
Back
Fore
SplineSet
117 133 m 2,0,1
 124 122 124 122 134 122 c 0,2,3
 151 122 151 122 151 139 c 0,4,5
 151 144 151 144 147 151 c 2,6,-1
 78 264 l 1,7,8
 131 313 131 313 203 313 c 0,9,10
 279 313 279 313 332 259.5 c 128,-1,11
 385 206 385 206 385 131 c 0,12,13
 385 11 385 11 280 -41 c 1,14,-1
 321 -106 l 2,15,16
 329 -118 329 -118 338 -118 c 0,17,18
 355 -118 355 -118 355 -99 c 0,19,20
 355 -93 355 -93 351 -88 c 2,21,-1
 330 -54 l 1,22,23
 420 4 420 4 420 131 c 0,24,25
 420 222 420 222 357 285 c 128,-1,26
 294 348 294 348 203 348 c 0,27,28
 119 348 119 348 54 288 c 1,29,-1
 54 759 l 2,30,31
 54 776 54 776 36 776 c 0,32,33
 19 776 19 776 19 759 c 2,34,-1
 19 12 l 2,35,36
 19 -5 19 -5 36 -5 c 0,37,38
 54 -5 54 -5 54 12 c 2,39,-1
 54 238 l 1,40,-1
 117 133 l 2,0,1
EndSplineSet
Validated: 9
EndChar

StartChar: I
Encoding: 73 73 44
Width: 296
Flags: W
LayerCount: 2
Back
Fore
SplineSet
154 387 m 1,0,1
 107 344 107 344 43 341 c 0,2,3
 25 340 25 340 25 358 c 0,4,5
 25 374 25 374 41 375 c 0,6,7
 90 377 90 377 126 408 c 0,8,9
 133 414 133 414 189 476 c 1,10,-1
 189 18 l 1,11,-1
 292 18 l 2,12,13
 310 18 310 18 310 0 c 256,14,15
 310 -18 310 -18 292 -18 c 2,16,-1
 44 -18 l 2,17,18
 27 -18 27 -18 27 0 c 256,19,20
 27 18 27 18 44 18 c 2,21,-1
 154 18 l 1,22,-1
 154 387 l 1,0,1
177 572 m 0,23,24
 113 540 113 540 113 504 c 0,25,26
 113 481 113 481 133 443 c 0,27,28
 135 438 135 438 135 434 c 0,29,30
 135 417 135 417 117 417 c 0,31,32
 107 417 107 417 102 427 c 0,33,34
 78 473 78 473 78 505 c 0,35,36
 78 562 78 562 161 604 c 0,37,38
 166 606 166 606 170 606 c 0,39,40
 187 606 187 606 187 589 c 0,41,42
 187 577 187 577 177 572 c 0,23,24
EndSplineSet
Validated: 1
EndChar

StartChar: J
Encoding: 74 74 45
Width: 324
Flags: W
LayerCount: 2
Back
Fore
SplineSet
240 -60 m 2,0,1
 240 -77 240 -77 222 -77 c 0,2,3
 205 -77 205 -77 205 -60 c 2,4,-1
 205 393 l 1,5,6
 139 343 139 343 94 341 c 0,7,8
 76 340 76 340 76 358 c 0,9,10
 76 374 76 374 93 375 c 0,11,12
 138 377 138 377 240 470 c 1,13,-1
 240 61 l 1,14,15
 280 46 280 46 305 10 c 128,-1,16
 330 -26 330 -26 330 -69 c 0,17,18
 330 -134 330 -134 277 -175 c 0,19,20
 239 -205 239 -205 194 -205 c 0,21,22
 138 -205 138 -205 96.5 -164.5 c 128,-1,23
 55 -124 55 -124 55 -68 c 0,24,25
 55 -47 55 -47 62 -26 c 1,26,27
 55 -27 55 -27 49 -27 c 0,28,29
 24 -27 24 -27 24 -10 c 0,30,31
 24 4 24 4 40 6 c 0,32,33
 66 9 66 9 109 41 c 1,34,-1
 130 13 l 1,35,36
 90 -18 90 -18 90 -64 c 0,37,38
 90 -106 90 -106 120.5 -138.5 c 128,-1,39
 151 -171 151 -171 193 -171 c 0,40,41
 227 -171 227 -171 256 -148 c 0,42,43
 295 -117 295 -117 295 -69 c 0,44,45
 295 -6 295 -6 240 23 c 1,46,-1
 240 -60 l 2,0,1
223 582 m 0,47,48
 159 550 159 550 159 514 c 0,49,50
 159 491 159 491 179 453 c 0,51,52
 181 449 181 449 181 445 c 0,53,54
 181 427 181 427 163 427 c 0,55,56
 153 427 153 427 148 437 c 0,57,58
 124 481 124 481 124 515 c 0,59,60
 124 572 124 572 208 614 c 0,61,62
 212 616 212 616 216 616 c 0,63,64
 233 616 233 616 233 597 c 0,65,66
 233 587 233 587 223 582 c 0,47,48
EndSplineSet
Validated: 1
EndChar

StartChar: K
Encoding: 75 75 46
Width: 351
Flags: W
LayerCount: 2
Back
Fore
SplineSet
71 198 m 0,0,1
 71 106 71 106 133.5 43.5 c 128,-1,2
 196 -19 196 -19 288 -19 c 0,3,4
 306 -19 306 -19 306 -1 c 0,5,6
 306 16 306 16 288 16 c 0,7,8
 212 16 212 16 159 69 c 128,-1,9
 106 122 106 122 106 198 c 0,10,11
 106 255 106 255 138 301 c 0,12,13
 154 324 154 324 217 372 c 0,14,15
 240 389 240 389 304 436 c 1,16,-1
 233 517 l 2,17,18
 228 523 228 523 220 523 c 0,19,20
 202 523 202 523 202 505 c 0,21,22
 202 499 202 499 207 493 c 2,23,-1
 252 442 l 1,24,-1
 64 301 l 1,25,-1
 64 776 l 2,26,27
 64 793 64 793 47 793 c 0,28,29
 29 793 29 793 29 776 c 2,30,-1
 29 0 l 2,31,32
 29 -17 29 -17 47 -17 c 0,33,34
 64 -17 64 -17 64 0 c 2,35,-1
 64 256 l 1,36,-1
 84 272 l 1,37,38
 71 235 71 235 71 198 c 0,0,1
EndSplineSet
Validated: 9
EndChar

StartChar: L
Encoding: 76 76 47
Width: 239
Flags: W
LayerCount: 2
Back
Fore
SplineSet
47 685 m 0,0,1
 82 682 82 682 105 707 c 1,2,3
 124 734 124 734 144 762 c 1,4,-1
 144 41 l 1,5,6
 158 48 158 48 175 48 c 0,7,8
 213 48 213 48 242 19 c 0,9,10
 248 13 248 13 248 6 c 0,11,12
 248 -12 248 -12 230 -12 c 0,13,14
 223 -12 223 -12 218 -7 c 0,15,16
 198 13 198 13 179 13 c 256,17,18
 160 13 160 13 141 -6 c 0,19,20
 134 -11 134 -11 109 -42 c 1,21,-1
 109 665 l 1,22,23
 85 647 85 647 44 651 c 0,24,25
 28 652 28 652 28 668 c 0,26,27
 28 687 28 687 47 685 c 0,0,1
EndSplineSet
Validated: 33
EndChar

StartChar: M
Encoding: 77 77 48
Width: 791
Flags: W
LayerCount: 2
Back
Fore
SplineSet
342 27 m 1,0,-1
 358 -48 l 2,1,2
 362 -69 362 -69 340 -69 c 0,3,4
 327 -69 327 -69 324 -55 c 2,5,-1
 302 48 l 1,6,7
 428 100 428 100 428 222 c 0,8,9
 428 320 428 320 345 374 c 0,10,11
 298 405 298 405 242 405 c 0,12,13
 146 405 146 405 94 325 c 0,14,15
 64 279 64 279 64 227 c 0,16,17
 64 129 64 129 147 74 c 0,18,19
 155 69 155 69 155 60 c 0,20,21
 155 41 155 41 138 41 c 0,22,23
 133 41 133 41 128 44 c 0,24,25
 90 69 90 69 65 106 c 1,26,-1
 65 0 l 2,27,28
 65 -17 65 -17 48 -17 c 0,29,30
 30 -17 30 -17 30 0 c 2,31,-1
 30 409 l 2,32,33
 30 426 30 426 48 426 c 0,34,35
 65 426 65 426 65 409 c 2,36,-1
 65 345 l 1,37,38
 127 440 127 440 242 440 c 0,39,40
 334 440 334 440 400 375 c 1,41,42
 464 439 464 439 554 439 c 0,43,44
 617 439 617 439 671 404 c 0,45,46
 770 340 770 340 770 224 c 0,47,48
 770 161 770 161 737.5 107.5 c 128,-1,49
 705 54 705 54 649 27 c 1,50,-1
 665 -53 l 2,51,52
 669 -74 669 -74 647 -74 c 0,53,54
 634 -74 634 -74 631 -59 c 2,55,-1
 609 48 l 1,56,57
 737 101 737 101 737 222 c 0,58,59
 737 297 737 297 680.5 351 c 128,-1,60
 624 405 624 405 549 405 c 0,61,62
 477 405 477 405 423 349 c 1,63,64
 463 294 463 294 463 224 c 0,65,66
 463 161 463 161 430.5 107.5 c 128,-1,67
 398 54 398 54 342 27 c 1,0,-1
EndSplineSet
Validated: 1
EndChar

StartChar: N
Encoding: 78 78 49
Width: 486
Flags: W
LayerCount: 2
Back
Fore
SplineSet
128 44 m 0,0,1
 133 41 133 41 138 41 c 0,2,3
 156 41 156 41 156 60 c 0,4,5
 156 68 156 68 147 74 c 0,6,7
 64 128 64 128 64 227 c 0,8,9
 64 279 64 279 94 325 c 0,10,11
 148 408 148 408 247 408 c 0,12,13
 301 408 301 408 346 379 c 0,14,15
 428 326 428 326 428 226 c 0,16,17
 428 105 428 105 302 53 c 1,18,-1
 324 -55 l 2,19,20
 327 -69 327 -69 341 -69 c 0,21,22
 362 -69 362 -69 358 -48 c 2,23,-1
 342 32 l 1,24,25
 398 60 398 60 430.5 113 c 128,-1,26
 463 166 463 166 463 229 c 0,27,28
 463 344 463 344 365 408 c 0,29,30
 310 444 310 444 246 444 c 0,31,32
 129 444 129 444 65 345 c 1,33,-1
 66 409 l 2,34,35
 66 426 66 426 48 426 c 0,36,37
 31 426 31 426 31 409 c 2,38,-1
 31 0 l 2,39,40
 31 -17 31 -17 48 -17 c 0,41,42
 66 -17 66 -17 66 0 c 2,43,-1
 66 107 l 1,44,45
 90 69 90 69 128 44 c 0,0,1
EndSplineSet
Validated: 9
EndChar

StartChar: O
Encoding: 79 79 50
Width: 460
Flags: W
LayerCount: 2
Back
Fore
SplineSet
119 179 m 2,0,-1
 282 413 l 1,1,2
 363 394 363 394 412.5 337 c 128,-1,3
 462 280 462 280 462 199 c 0,4,5
 462 107 462 107 399.5 44.5 c 128,-1,6
 337 -18 337 -18 245 -18 c 256,7,8
 153 -18 153 -18 90.5 44.5 c 128,-1,9
 28 107 28 107 28 199 c 256,10,11
 28 291 28 291 90.5 353.5 c 128,-1,12
 153 416 153 416 245 416 c 0,13,14
 262 416 262 416 262 398 c 0,15,16
 262 381 262 381 245 381 c 0,17,18
 169 381 169 381 116 328 c 128,-1,19
 63 275 63 275 63 199 c 256,20,21
 63 123 63 123 116 70 c 128,-1,22
 169 17 169 17 245 17 c 256,23,24
 321 17 321 17 374 70 c 128,-1,25
 427 123 427 123 427 199 c 0,26,27
 427 260 427 260 391 308 c 128,-1,28
 355 356 355 356 297 373 c 1,29,-1
 148 159 l 2,30,31
 142 151 142 151 134 151 c 0,32,33
 116 151 116 151 116 169 c 0,34,35
 116 175 116 175 119 179 c 2,0,-1
EndSplineSet
Validated: 1
EndChar

StartChar: P
Encoding: 80 80 51
Width: 559
Flags: W
LayerCount: 2
Back
Fore
SplineSet
79 426 m 0,0,1
 136 426 136 426 149 317 c 1,2,3
 179 367 179 367 229 396.5 c 128,-1,4
 279 426 279 426 337 426 c 0,5,6
 428 426 428 426 491 363 c 128,-1,7
 554 300 554 300 554 209 c 0,8,9
 554 117 554 117 491.5 54 c 128,-1,10
 429 -9 429 -9 337 -9 c 0,11,12
 269 -9 269 -9 214 30 c 0,13,14
 206 36 206 36 206 44 c 0,15,16
 206 62 206 62 223 62 c 0,17,18
 230 62 230 62 234 59 c 0,19,20
 281 27 281 27 337 27 c 0,21,22
 413 27 413 27 466 80 c 128,-1,23
 519 133 519 133 519 209 c 256,24,25
 519 285 519 285 466 338 c 128,-1,26
 413 391 413 391 337 391 c 256,27,28
 261 391 261 391 208 338 c 128,-1,29
 155 285 155 285 155 209 c 1,30,-1
 120 208 l 1,31,32
 115 391 115 391 79 391 c 0,33,34
 61 391 61 391 61 408 c 0,35,36
 61 426 61 426 79 426 c 0,0,1
300 224 m 2,37,-1
 122 56 l 1,38,-1
 122 -326 l 1,39,-1
 88 -282 l 2,40,41
 70 -263 70 -263 45 -263 c 0,42,43
 35 -263 35 -263 28 -264 c 0,44,45
 7 -267 7 -267 7 -247 c 0,46,47
 7 -233 7 -233 22 -230 c 0,48,49
 64 -223 64 -223 87 -236 c 1,50,-1
 87 72 l 1,51,-1
 277 250 l 2,52,53
 282 255 282 255 288 255 c 0,54,55
 306 255 306 255 306 237 c 0,56,57
 306 230 306 230 300 224 c 2,37,-1
EndSplineSet
Validated: 33
EndChar

StartChar: Q
Encoding: 81 81 52
Width: 548
Flags: W
LayerCount: 2
Back
Fore
SplineSet
483 391 m 0,0,1
 447 391 447 391 441 208 c 1,2,-1
 407 209 l 1,3,4
 407 285 407 285 354 338 c 128,-1,5
 301 391 301 391 225 391 c 256,6,7
 149 391 149 391 96 338 c 128,-1,8
 43 285 43 285 43 209 c 256,9,10
 43 133 43 133 96 80 c 128,-1,11
 149 27 149 27 225 27 c 0,12,13
 280 27 280 27 328 59 c 0,14,15
 332 62 332 62 338 62 c 0,16,17
 356 62 356 62 356 44 c 0,18,19
 356 35 356 35 348 30 c 0,20,21
 290 -9 290 -9 225 -9 c 0,22,23
 133 -9 133 -9 70.5 54 c 128,-1,24
 8 117 8 117 8 209 c 0,25,26
 8 300 8 300 71 363 c 128,-1,27
 134 426 134 426 225 426 c 0,28,29
 283 426 283 426 333 396.5 c 128,-1,30
 383 367 383 367 412 317 c 1,31,32
 426 426 426 426 483 426 c 0,33,34
 500 426 500 426 500 408 c 0,35,36
 500 391 500 391 483 391 c 0,0,1
285 250 m 2,37,-1
 475 72 l 1,38,-1
 475 -236 l 1,39,40
 498 -222 498 -222 540 -230 c 0,41,42
 554 -233 554 -233 554 -247 c 0,43,44
 554 -268 554 -268 533 -264 c 0,45,46
 528 -263 528 -263 516 -263 c 0,47,48
 491 -263 491 -263 473 -282 c 0,49,50
 456 -304 456 -304 440 -326 c 1,51,-1
 440 56 l 1,52,-1
 261 224 l 2,53,54
 255 230 255 230 255 237 c 0,55,56
 255 255 255 255 273 255 c 0,57,58
 280 255 280 255 285 250 c 2,37,-1
EndSplineSet
Validated: 33
EndChar

StartChar: R
Encoding: 82 82 53
Width: 409
Flags: W
LayerCount: 2
Back
Fore
SplineSet
403 314 m 0,0,1
 405 310 405 310 405 306 c 0,2,3
 405 289 405 289 386 289 c 0,4,5
 376 289 376 289 371 300 c 0,6,7
 348 348 348 348 303 376.5 c 128,-1,8
 258 405 258 405 204 405 c 0,9,10
 114 405 114 405 60 332 c 1,11,-1
 114 258 l 2,12,13
 117 253 117 253 117 248 c 0,14,15
 117 230 117 230 99 230 c 0,16,17
 91 230 91 230 85 238 c 2,18,-1
 46 292 l 1,19,-1
 46 0 l 2,20,21
 46 -17 46 -17 29 -17 c 0,22,23
 11 -17 11 -17 11 0 c 2,24,-1
 11 409 l 2,25,26
 11 426 11 426 29 426 c 0,27,28
 46 426 46 426 46 409 c 2,29,-1
 46 368 l 1,30,31
 114 440 114 440 209 440 c 0,32,33
 273 440 273 440 324.5 406.5 c 128,-1,34
 376 373 376 373 403 314 c 0,0,1
EndSplineSet
Validated: 1
EndChar

StartChar: S
Encoding: 83 83 54
Width: 359
Flags: W
LayerCount: 2
Back
Fore
SplineSet
172 180 m 0,0,1
 110 180 110 180 67 223.5 c 128,-1,2
 24 267 24 267 24 329 c 256,3,4
 24 391 24 391 67 435 c 128,-1,5
 110 479 110 479 172 479 c 0,6,7
 229 479 229 479 263 448 c 0,8,9
 269 443 269 443 269 436 c 0,10,11
 269 418 269 418 251 418 c 0,12,13
 245 418 245 418 239 422 c 0,14,15
 216 444 216 444 172 444 c 0,16,17
 124 444 124 444 91.5 410.5 c 128,-1,18
 59 377 59 377 59 329 c 0,19,20
 59 282 59 282 92 248.5 c 128,-1,21
 125 215 125 215 172 215 c 0,22,23
 215 215 215 215 236 235 c 1,24,25
 218 239 218 239 199 235 c 0,26,27
 175 230 175 230 168 230 c 0,28,29
 151 230 151 230 151 249 c 0,30,31
 151 261 151 261 163 265 c 0,32,33
 187 273 187 273 211 273 c 0,34,35
 273 273 273 273 316 228 c 128,-1,36
 359 183 359 183 359 121 c 0,37,38
 359 72 359 72 327 31 c 0,39,40
 283 -26 283 -26 210 -26 c 0,41,42
 158 -26 158 -26 118 4 c 0,43,44
 75 35 75 35 66 85 c 0,45,46
 62 106 62 106 83 106 c 0,47,48
 97 106 97 106 100 91 c 0,49,50
 106 54 106 54 140 31 c 0,51,52
 171 9 171 9 210 9 c 0,53,54
 266 9 266 9 299 52 c 0,55,56
 324 84 324 84 324 122 c 0,57,58
 324 185 324 185 269 220 c 1,59,60
 235 180 235 180 172 180 c 0,0,1
EndSplineSet
Validated: 33
EndChar

StartChar: T
Encoding: 84 84 55
Width: 418
Flags: W
LayerCount: 2
Back
Fore
SplineSet
158 -50 m 1,0,1
 195 -11 195 -11 202 -5 c 0,2,3
 232 23 232 23 254 23 c 0,4,5
 258 23 258 23 264.5 21.5 c 128,-1,6
 271 20 271 20 274 20 c 0,7,8
 288 20 288 20 288 38 c 0,9,10
 288 58 288 58 253 58 c 0,11,12
 222 58 222 58 193 35 c 1,13,-1
 193 353 l 1,14,-1
 380 353 l 2,15,16
 397 353 397 353 397 371 c 0,17,18
 397 388 397 388 380 388 c 2,19,-1
 193 388 l 1,20,-1
 193 460 l 2,21,22
 193 477 193 477 175 477 c 0,23,24
 158 477 158 477 158 460 c 2,25,-1
 158 388 l 1,26,-1
 83 388 l 2,27,28
 66 388 66 388 66 371 c 0,29,30
 66 353 66 353 83 353 c 2,31,-1
 158 353 l 1,32,-1
 158 -50 l 1,0,1
EndSplineSet
Validated: 9
EndChar

StartChar: U
Encoding: 85 85 56
Width: 560
Flags: W
LayerCount: 2
Back
Fore
SplineSet
149 6 m 0,0,1
 51 70 51 70 51 186 c 0,2,3
 51 249 51 249 83.5 302.5 c 128,-1,4
 116 356 116 356 172 383 c 1,5,-1
 156 462 l 2,6,7
 152 483 152 483 173 483 c 0,8,9
 187 483 187 483 190 469 c 2,10,-1
 212 362 l 1,11,12
 85 310 85 310 85 188 c 0,13,14
 85 88 85 88 168 35 c 0,15,16
 213 6 213 6 267 6 c 0,17,18
 366 6 366 6 420 89 c 0,19,20
 450 135 450 135 450 188 c 0,21,22
 450 287 450 287 367 340 c 0,23,24
 358 346 358 346 358 355 c 0,25,26
 358 373 358 373 376 373 c 0,27,28
 381 373 381 373 386 370 c 0,29,30
 423 346 423 346 448 308 c 1,31,-1
 448 414 l 2,32,33
 448 432 448 432 466 432 c 0,34,35
 483 432 483 432 483 414 c 2,36,-1
 483 5 l 2,37,38
 483 -12 483 -12 466 -12 c 0,39,40
 448 -12 448 -12 448 5 c 2,41,-1
 448 68 l 1,42,43
 384 -29 384 -29 267 -29 c 0,44,45
 203 -29 203 -29 149 6 c 0,0,1
EndSplineSet
Validated: 1
EndChar

StartChar: V
Encoding: 86 86 57
Width: 395
Flags: W
LayerCount: 2
Back
Fore
SplineSet
304 381 m 0,0,1
 299 385 299 385 294 385 c 0,2,3
 277 385 277 385 277 366 c 0,4,5
 277 357 277 357 285 352 c 0,6,7
 368 298 368 298 368 203 c 0,8,9
 368 126 368 126 316 72 c 128,-1,10
 264 18 264 18 188 17 c 1,11,-1
 55 459 l 2,12,13
 51 472 51 472 39 472 c 0,14,15
 15 472 15 472 22 449 c 2,16,-1
 159 -5 l 2,17,18
 163 -19 163 -19 177 -17 c 0,19,20
 271 -21 271 -21 337 44 c 128,-1,21
 403 109 403 109 403 204 c 0,22,23
 403 317 403 317 304 381 c 0,0,1
EndSplineSet
Validated: 41
EndChar

StartChar: W
Encoding: 87 87 58
Width: 663
Flags: W
LayerCount: 2
Back
Fore
SplineSet
366 319 m 1,0,1
 402 268 402 268 403 204 c 1,2,-1
 459 15 l 1,3,4
 535 16 535 16 586.5 69.5 c 128,-1,5
 638 123 638 123 638 200 c 0,6,7
 638 294 638 294 555 349 c 0,8,9
 547 354 547 354 547 364 c 0,10,11
 547 382 547 382 564 382 c 0,12,13
 569 382 569 382 574 379 c 0,14,15
 673 315 673 315 673 201 c 0,16,17
 673 106 673 106 608 42 c 128,-1,18
 543 -22 543 -22 449 -19 c 1,19,20
 432 -23 432 -23 428 -8 c 2,21,-1
 389 126 l 1,22,23
 365 58 365 58 307.5 18 c 128,-1,24
 250 -22 250 -22 178 -20 c 0,25,26
 163 -23 163 -23 159 -8 c 2,27,-1
 22 446 l 2,28,29
 15 469 15 469 39 469 c 0,30,31
 51 469 51 469 55 456 c 2,32,-1
 187 15 l 1,33,34
 265 15 265 15 317 70 c 128,-1,35
 369 125 369 125 368 203 c 0,36,37
 366 296 366 296 285 349 c 0,38,39
 277 354 277 354 277 364 c 0,40,41
 277 382 277 382 294 382 c 0,42,43
 301 382 301 382 317 370 c 1,44,-1
 291 446 l 2,45,46
 290 449 290 449 290 452 c 0,47,48
 290 469 290 469 309 469 c 0,49,50
 321 469 321 469 325 456 c 2,51,-1
 366 319 l 1,0,1
EndSplineSet
Validated: 33
EndChar

StartChar: X
Encoding: 88 88 59
Width: 407
Flags: W
LayerCount: 2
Back
Fore
SplineSet
395 12 m 2,0,1
 400 7 400 7 400 0 c 0,2,3
 400 -18 400 -18 382 -18 c 0,4,5
 376 -18 376 -18 370 -12 c 2,6,-1
 247 120 l 1,7,8
 156 -2 156 -2 36 -17 c 0,9,10
 16 -19 16 -19 16 0 c 0,11,12
 16 15 16 15 31 17 c 0,13,14
 139 31 139 31 223 148 c 1,15,-1
 62 323 l 2,16,17
 57 328 57 328 57 335 c 0,18,19
 57 353 57 353 75 353 c 0,20,21
 81 353 81 353 87 347 c 2,22,-1
 243 178 l 1,23,24
 288 256 288 256 288 335 c 0,25,26
 288 369 288 369 280 399 c 0,27,28
 274 422 274 422 297 422 c 0,29,30
 310 422 310 422 313 409 c 0,31,32
 323 370 323 370 323 335 c 0,33,34
 323 241 323 241 268 151 c 1,35,-1
 395 12 l 2,0,1
EndSplineSet
Validated: 1
EndChar

StartChar: Y
Encoding: 89 89 60
Width: 386
Flags: W
LayerCount: 2
Back
Fore
SplineSet
296 381 m 0,0,1
 291 385 291 385 286 385 c 0,2,3
 269 385 269 385 269 366 c 0,4,5
 269 357 269 357 277 352 c 0,6,7
 360 298 360 298 360 203 c 0,8,9
 360 126 360 126 308 72 c 128,-1,10
 256 18 256 18 180 17 c 1,11,-1
 47 459 l 2,12,13
 43 472 43 472 31 472 c 0,14,15
 7 472 7 472 14 449 c 2,16,-1
 231 -272 l 2,17,18
 235 -285 235 -285 247 -285 c 0,19,20
 256 -285 256 -285 261.5 -278 c 128,-1,21
 267 -271 267 -271 264 -262 c 2,22,-1
 191 -17 l 1,23,24
 279 -12 279 -12 337 52 c 128,-1,25
 395 116 395 116 395 204 c 0,26,27
 395 317 395 317 296 381 c 0,0,1
EndSplineSet
Validated: 9
EndChar

StartChar: Z
Encoding: 90 90 61
Width: 536
Flags: W
LayerCount: 2
Back
Fore
SplineSet
58 0 m 1,0,-1
 491 0 l 2,1,2
 508 0 508 0 508 18 c 0,3,4
 508 35 508 35 491 35 c 2,5,-1
 160 35 l 1,6,-1
 471 276 l 1,7,-1
 449 303 l 1,8,9
 427 286 427 286 402 286 c 0,10,11
 374 286 374 286 351.5 307 c 128,-1,12
 329 328 329 328 327 356 c 1,13,-1
 466 356 l 2,14,15
 483 356 483 356 483 373 c 0,16,17
 483 391 483 391 466 391 c 2,18,-1
 336 391 l 1,19,20
 338 395 338 395 350.5 410 c 128,-1,21
 363 425 363 425 363 432 c 0,22,23
 363 449 363 449 347 449 c 0,24,25
 341 449 341 449 334 445 c 0,26,27
 305 421 305 421 297 391 c 1,28,-1
 49 391 l 2,29,30
 32 391 32 391 32 374 c 0,31,32
 32 356 32 356 49 356 c 2,33,-1
 294 356 l 1,34,35
 296 319 296 319 321.5 290 c 128,-1,36
 347 261 347 261 384 253 c 1,37,-1
 58 0 l 1,0,-1
EndSplineSet
Validated: 9
EndChar

StartChar: bracketleft
Encoding: 91 91 62
Width: 1000
Flags: W
LayerCount: 2
Back
Fore
SplineSet
152 377 m 1,0,-1
 44 377 l 1,1,2
 76 414 76 414 82 423 c 0,3,4
 101 451 101 451 101 477 c 0,5,6
 101 488 101 488 98 500 c 1,7,-1
 141 513 l 1,8,9
 146 496 146 496 146 478 c 0,10,11
 146 449 146 449 134 422 c 1,12,-1
 202 422 l 1,13,-1
 193 336 l 1,14,-1
 336 336 l 1,15,-1
 336 291 l 1,16,-1
 188 291 l 1,17,-1
 176 189 l 2,18,19
 170 137 170 137 197 137 c 0,20,21
 208 137 208 137 222 156 c 0,22,23
 229 165 229 165 229 182 c 0,24,25
 229 196 229 196 217 193 c 1,26,-1
 206 237 l 1,27,28
 215 239 215 239 223 239 c 0,29,30
 273 239 273 239 273 178 c 0,31,32
 273 99 273 99 184 99 c 0,33,34
 127 99 127 99 127 160 c 0,35,36
 127 176 127 176 132 196 c 2,37,-1
 142 291 l 1,38,-1
 13 291 l 1,39,-1
 13 336 l 1,40,-1
 147 336 l 1,41,-1
 152 377 l 1,0,-1
523 521 m 1,42,43
 529 503 529 503 529 485 c 0,44,45
 529 434 529 434 486 385 c 1,46,-1
 406 385 l 1,47,-1
 385 196 l 2,48,49
 384 187 384 187 384 185 c 0,50,51
 384 140 384 140 446 140 c 0,52,53
 498 140 498 140 524 175 c 0,54,55
 532 186 532 186 532 205 c 0,56,57
 532 219 532 219 525 224 c 0,58,59
 523 225 523 225 521 224 c 2,60,-1
 511 268 l 1,61,62
 518 270 518 270 525 270 c 0,63,64
 550 270 550 270 563 249.5 c 128,-1,65
 576 229 576 229 576 202 c 0,66,67
 576 172 576 172 560 150 c 0,68,69
 520 95 520 95 448 95 c 0,70,71
 405 95 405 95 374 117 c 0,72,73
 339 142 339 142 339 183 c 0,74,75
 339 186 339 186 341 204 c 2,76,-1
 366 430 l 1,77,-1
 465 430 l 1,78,79
 483 456 483 456 483 485 c 0,80,81
 483 497 483 497 480 507 c 1,82,-1
 523 521 l 1,42,43
448 238 m 1,83,-1
 449 237 l 1,84,-1
 427 198 l 1,85,86
 402 212 402 212 402 236 c 0,87,88
 402 270 402 270 455 310 c 0,89,90
 469 321 469 321 535 366 c 0,91,92
 538 368 538 368 546 374 c 1,93,-1
 579 344 l 1,94,95
 568 332 568 332 537 311 c 2,96,-1
 489 279 l 2,97,98
 454 256 454 256 448 238 c 1,83,-1
709 430 m 2,99,100
 712 443 712 443 712 450 c 0,101,102
 712 460 712 460 698 461 c 1,103,104
 706 438 706 438 705 421 c 1,105,-1
 709 430 l 2,99,100
768 411 m 1,106,-1
 804 282 l 1,107,-1
 823 282 l 1,108,109
 817 302 817 302 817 320 c 0,110,111
 817 341 817 341 826 360 c 1,112,-1
 866 343 l 1,113,114
 850 309 850 309 864 279 c 2,115,-1
 884 236 l 1,116,-1
 817 236 l 1,117,-1
 851 114 l 2,118,119
 850 109 850 109 850 103 c 0,120,121
 850 65 850 65 874 65 c 0,122,123
 901 65 901 65 901 104 c 0,124,125
 901 117 901 117 891 115 c 1,126,-1
 880 158 l 1,127,128
 889 161 889 161 898 161 c 0,129,130
 946 161 946 161 946 101 c 0,131,132
 946 20 946 20 858 20 c 0,133,134
 801 20 801 20 801 82 c 0,135,136
 801 96 801 96 804 113 c 1,137,-1
 771 236 l 1,138,-1
 676 236 l 1,139,-1
 619 103 l 1,140,-1
 578 121 l 1,141,-1
 633 256 l 1,142,-1
 633 281 l 1,143,-1
 645 282 l 1,144,-1
 681 366 l 1,145,-1
 618 366 l 1,146,147
 660 414 660 414 660 431 c 0,148,149
 660 437 660 437 638 500 c 1,150,151
 678 505 678 505 694 505 c 0,152,153
 757 505 757 505 757 451 c 0,154,155
 757 436 757 436 752 416 c 2,156,-1
 750 411 l 1,157,-1
 768 411 l 1,106,-1
696 282 m 1,158,-1
 757 282 l 1,159,-1
 734 366 l 1,160,-1
 731 366 l 1,161,-1
 696 282 l 1,158,-1
EndSplineSet
Validated: 33
EndChar

StartChar: b
Encoding: 98 98 69
Width: 539
Flags: W
LayerCount: 2
Back
Fore
SplineSet
92 -18 m 0,0,1
 149 -18 149 -18 162 91 c 1,2,3
 192 41 192 41 242 11.5 c 128,-1,4
 292 -18 292 -18 350 -18 c 0,5,6
 442 -18 442 -18 504.5 45 c 128,-1,7
 567 108 567 108 567 200 c 0,8,9
 567 291 567 291 504 354 c 128,-1,10
 441 417 441 417 350 417 c 0,11,12
 282 417 282 417 227 378 c 0,13,14
 219 372 219 372 219 364 c 0,15,16
 219 346 219 346 236 346 c 0,17,18
 243 346 243 346 247 349 c 0,19,20
 294 382 294 382 350 382 c 0,21,22
 426 382 426 382 479 329 c 128,-1,23
 532 276 532 276 532 200 c 256,24,25
 532 124 532 124 479 71 c 128,-1,26
 426 18 426 18 350 18 c 256,27,28
 274 18 274 18 221 71 c 128,-1,29
 168 124 168 124 168 200 c 1,30,-1
 133 200 l 1,31,32
 128 18 128 18 92 18 c 0,33,34
 74 18 74 18 74 0 c 256,35,36
 74 -18 74 -18 92 -18 c 0,0,1
314 184 m 2,37,-1
 135 352 l 1,38,-1
 135 832 l 1,39,40
 105 793 105 793 102 790 c 0,41,42
 80 768 80 768 57 768 c 0,43,44
 50 768 50 768 40 770 c 0,45,46
 19 774 19 774 19 753 c 0,47,48
 19 738 19 738 33 736 c 0,49,50
 77 728 77 728 100 742 c 1,51,-1
 100 336 l 1,52,-1
 290 158 l 2,53,54
 295 153 295 153 302 153 c 0,55,56
 319 153 319 153 319 171 c 0,57,58
 319 178 319 178 314 184 c 2,37,-1
EndSplineSet
Validated: 41
EndChar

StartChar: Adieresis
Encoding: 196 196 112
Width: 460
Flags: W
LayerCount: 2
Back
Fore
SplineSet
433 356 m 0,0,1
 433 376 433 376 396 376 c 1,2,3
 389 368 389 368 376 338 c 0,4,5
 365 314 365 314 351 302 c 1,6,7
 328 344 328 344 325 349 c 0,8,9
 305 381 305 381 291 385 c 1,10,11
 277 378 277 378 277 365 c 0,12,13
 277 354 277 354 301.5 319.5 c 128,-1,14
 326 285 326 285 326 281 c 2,15,-1
 326 259 l 1,16,-1
 231 245 l 2,17,18
 166 235 166 235 135 214 c 0,19,20
 93 184 93 184 99 125 c 1,21,22
 92 118 92 118 35 101 c 1,23,24
 35 92 35 92 40 76.5 c 128,-1,25
 45 61 45 61 45 55 c 1,26,27
 57 55 57 55 81 58.5 c 128,-1,28
 105 62 105 62 117 62 c 0,29,30
 127 62 127 62 142.5 50 c 128,-1,31
 158 38 158 38 166 38 c 2,32,-1
 267 38 l 1,33,34
 253 48 253 48 228 66 c 1,35,36
 251 96 251 96 255 100 c 0,37,38
 269 116 269 116 281 120 c 1,39,40
 291 108 291 108 304.5 79 c 128,-1,41
 318 50 318 50 328 38 c 1,42,-1
 363 38 l 1,43,44
 363 42 363 42 354.5 56 c 128,-1,45
 346 70 346 70 347 73 c 0,46,47
 379 176 379 176 377 214 c 0,48,49
 379 216 379 216 396 227.5 c 128,-1,50
 413 239 413 239 413 241 c 0,51,52
 394 275 394 275 394 287 c 0,53,54
 394 293 394 293 396 296 c 0,55,56
 433 347 433 347 433 356 c 0,0,1
EndSplineSet
Validated: 41
EndChar

